<?xml version="1.0" encoding="UTF-8"?>
<svg version="1.1" xmlns="http://www.w3.org/2000/svg" width="1024" height="1024">
<path d="M0 0 C337.92 0 675.84 0 1024 0 C1024 337.92 1024 675.84 1024 1024 C686.08 1024 348.16 1024 0 1024 C0 686.08 0 348.16 0 0 Z " fill="#010101" transform="translate(0,0)"/>
<path d="M0 0 C163.35 0 326.7 0 495 0 C495 337.92 495 675.84 495 1024 C351.78 1024 208.56 1024 61 1024 C69.12077176 1010.07867699 69.12077176 1010.07867699 73.75 1004.0625 C74.52186646 1003.04494629 74.52186646 1003.04494629 75.30932617 1002.00683594 C78.52162044 997.81042271 81.85814015 993.7481612 85.3125 989.75 C92.69099292 981.20875372 99.31962049 972.09006911 106 963 C106.5863623 962.20303711 107.17272461 961.40607422 107.77685547 960.58496094 C123.59133638 939.32418044 123.59133638 939.32418044 136 916 C136.27739014 915.38358643 136.55478027 914.76717285 136.84057617 914.13208008 C139.99024801 906.20140622 139.4426755 897.74791045 139.43579102 889.35375977 C139.45238752 879.97009655 139.87455805 873.37501902 145.75390625 865.71484375 C152.0131742 859.5637273 159.09163437 854.8063629 167 851 C165.2542151 855.79640902 162.72393633 860.03983167 160.09765625 864.38867188 C154.85094344 873.31606344 152.41635792 881.89585127 151.0625 892.125 C145.74033373 927.72397441 125.8360917 956.49297259 101.75390625 982.41796875 C86.47202073 998.19402639 86.47202073 998.19402639 79 1018 C91.02373873 1018.07004613 103.04742753 1018.12308499 115.07133007 1018.15543652 C120.65675846 1018.17097716 126.2420455 1018.19199868 131.82739258 1018.22631836 C137.23503791 1018.2593316 142.64254878 1018.27693977 148.05028725 1018.28463173 C150.09556502 1018.29010103 152.14083691 1018.30077643 154.18605614 1018.31719017 C164.76424378 1018.39857331 175.12167878 1018.10652914 185.61450195 1016.66918945 C186.92222077 1016.49434037 186.92222077 1016.49434037 188.25635815 1016.31595898 C193.59593204 1015.49899955 197.84892614 1014.44833281 201.5546875 1010.23046875 C209.04238949 998.64446833 214.3143238 986.35053007 218.8125 973.375 C219.06468292 972.65466583 219.31686584 971.93433167 219.57669067 971.19216919 C227.99324719 947.06466332 234.92042865 922.40954365 239.41699219 897.24316406 C240.05074181 893.71773277 240.71548357 890.1989119 241.3828125 886.6796875 C245.58702689 864.29707872 249.21814549 841.82114191 252.6472168 819.30780029 C252.96073806 817.25683967 253.27977922 815.20672456 253.59960938 813.15673828 C256.44260693 794.70176275 256.61411165 776.40660572 255.63027954 757.77770996 C255.0191021 746.14089154 254.84538691 734.5365296 254.86962891 722.88452148 C254.87506297 719.7764819 254.86960284 716.66858255 254.86328125 713.56054688 C254.86394105 711.54687469 254.86522016 709.53320258 254.8671875 707.51953125 C254.86516327 706.60895462 254.86313904 705.69837799 254.86105347 704.76020813 C254.8799487 699.53048425 255.17531997 694.41030099 255.76264954 689.21287537 C256.11976877 685.88336699 256.24537329 682.59926943 256.3125 679.25 C256.34988281 678.01765625 256.38726563 676.7853125 256.42578125 675.515625 C255.90113288 671.18366601 254.641734 669.39725951 252 666 C248.66945626 665.86521513 248.66945626 665.86521513 245 667 C240.6974714 671.82947812 238.72092328 677.99170326 237.0078125 684.10546875 C236.75822784 684.96698044 236.50864319 685.82849213 236.25149536 686.71611023 C233.38615948 696.81871019 231.12107581 707.05825242 228.875 717.3125 C228.04327862 721.0803718 227.20707138 724.84722074 226.3671875 728.61328125 C226.1682489 729.50685333 225.9693103 730.40042542 225.76434326 731.32107544 C224.0505492 738.940435 222.10111507 746.47841631 220 754 C217.57463134 750.36194702 216.73236611 746.71296552 215.6796875 742.53125 C215.35003242 741.24822746 215.35003242 741.24822746 215.01371765 739.93928528 C214.29402664 737.12786934 213.58381463 734.31417645 212.875 731.5 C212.63111542 730.53782562 212.38723083 729.57565125 212.13595581 728.58432007 C196.23816173 665.83192464 196.23816173 665.83192464 194 638 C198.41012219 638.55391265 201.76040765 639.65409856 205.703125 641.6875 C206.76660156 642.22117187 207.83007812 642.75484375 208.92578125 643.3046875 C211.12953623 644.42857664 213.33011204 645.55872303 215.52734375 646.6953125 C223.60464386 650.72909084 231.09950634 653.46825005 240.125 651.0625 C251.48047663 648.54101994 257.68494579 651.63801852 267.53515625 657.51171875 C275.37106348 661.95843684 283.32836439 662.2475806 292 660 C303.29477392 658.09448712 312.69940152 661.19850765 323.125 665.1875 C323.76500946 665.42915894 324.40501892 665.67081787 325.06442261 665.9197998 C339.24781355 671.33454553 339.24781355 671.33454553 343 676 C342.7160327 680.96464584 341.49408525 684.54060932 339.0859375 688.8515625 C338.49288818 689.93912842 337.89983887 691.02669434 337.28881836 692.1472168 C336.6572583 693.29488525 336.02569824 694.44255371 335.375 695.625 C317.41729322 729.13423602 313.42381248 767.11334827 308.8125 804.375 C308.66992767 805.5169986 308.52735535 806.65899719 308.38046265 807.83560181 C304.59618275 838.24875858 301.37022955 868.72603071 298.11328125 899.19921875 C298.02531092 900.02225998 297.93734058 900.84530121 297.84670448 901.69328308 C297.04766882 909.17112966 296.24907086 916.64902127 295.45599365 924.12750244 C295.0097497 928.33512804 294.56111279 932.54249278 294.11098289 936.74970436 C293.94417305 938.31314306 293.778241 939.87667574 293.61330605 941.44031334 C292.60515459 950.99486778 291.43217041 960.4978484 290 970 C289.67 970 289.34 970 289 970 C287.91933872 931.61651245 292.12281934 893.03773569 295.27493286 854.82624817 C296.08422159 845.01116527 296.86550808 835.19405767 297.625 825.375 C297.68737854 824.570625 297.74975708 823.76625 297.81402588 822.9375 C298.60055672 812.7545645 299.28338001 802.5713824 299.875 792.375 C300.83546749 775.93813372 302.21151316 759.53333514 303.5625 743.125 C303.6187429 742.44070671 303.67498581 741.75641342 303.73293304 741.05138397 C304.11263916 736.4325027 304.49496875 731.81384436 304.87890625 727.1953125 C304.97676926 726.01418884 305.07463226 724.83306519 305.17546082 723.6161499 C305.6643333 717.77743988 306.18656251 711.94575165 306.80082703 706.11880493 C307.11081227 702.82117745 307.20806138 699.56315124 307.25 696.25 C307.27578125 695.01765625 307.3015625 693.7853125 307.328125 692.515625 C306.97191866 688.69912855 305.91653528 686.28837105 304 683 C300.3797459 683.42227118 300.3797459 683.42227118 297.48046875 685.46875 C272.16502217 725.23924009 269.51885373 776.56905176 263.50723267 822.10043335 C259.11521014 855.32479822 253.17638627 887.80413353 245.52113342 920.41526794 C244.30506707 925.62269828 243.15370006 930.84196535 242.03125 936.0703125 C238.81839355 950.99618657 235.40973023 965.80573286 231.25 980.5 C230.97290695 981.4802565 230.97290695 981.4802565 230.69021606 982.48031616 C228.59727325 989.84326393 226.34741523 997.10592957 223.72558594 1004.29882812 C222.92012385 1007.29735859 222.87394756 1009.9088761 223 1013 C236.21447526 1020.27292924 254.19177364 1019.06127523 269 1019.1875 C269.88437744 1019.20055176 270.76875488 1019.21360352 271.67993164 1019.22705078 C275.64462346 1019.23232348 278.79183535 1019.0609481 282.62890625 1017.9375 C286.63032324 1016.82470733 289.91610805 1017.16488915 293.9375 1017.8125 C294.60201172 1017.90853516 295.26652344 1018.00457031 295.95117188 1018.10351562 C299.16891931 1018.56854411 302.38164973 1019.05973648 305.59375 1019.5625 C320.41152623 1021.36434448 348.81857202 1024.19824754 361.23339844 1014.58056641 C367.70100941 1008.79403884 371.04349197 1001.15758581 374.375 993.3125 C374.84397705 992.228479 375.3129541 991.14445801 375.79614258 990.02758789 C380.17658233 979.80308231 384.16840031 969.4408347 388 959 C383.72337745 962.7220382 379.47558326 966.46332966 375.3125 970.3125 C362.1823277 982.11760904 339.57777501 1002 321 1002 C328.59124734 981.44350348 346.34047254 963.40104885 360.828125 947.44921875 C363.86668688 944.02263908 366.74075881 940.47311932 369.6171875 936.91015625 C371.28717728 934.87057857 372.96980647 932.86210941 374.6953125 930.87109375 C381.02087551 923.56538929 386.71849071 916.11376904 392 908 C392.59296875 907.11699219 393.1859375 906.23398437 393.796875 905.32421875 C404.01218269 889.13436184 411.65569115 868.15640109 413 849 C412.38253906 849.81082031 411.76507812 850.62164063 411.12890625 851.45703125 C397.04504997 869.89897448 382.19383869 888.01992905 363.99609375 902.578125 C360.54706506 905.36612733 357.17536479 908.23417118 353.8125 911.125 C352.90612793 911.90290894 352.90612793 911.90290894 351.98144531 912.6965332 C348.96333639 915.29232282 345.96940912 917.91101477 343 920.5625 C339.30390227 923.80667311 335.47368356 926.87750501 331.625 929.9375 C331.00496094 930.43515869 330.38492187 930.93281738 329.74609375 931.44555664 C325.23504394 935 325.23504394 935 323 935 C326.13800412 922.86638409 333.7573801 913.29921636 341.6875 903.875 C366.29305478 874.57918806 389.88857136 837.14002766 397 799 C396.34 799 395.68 799 395 799 C394.72800781 799.56589844 394.45601562 800.13179687 394.17578125 800.71484375 C388.77781962 811.20589874 381.38986279 820.8625151 374.69189453 830.546875 C373.05465491 832.92075432 371.43100245 835.30347033 369.80859375 837.6875 C355.94293202 857.90496788 355.94293202 857.90496788 347 861 C347.47308594 860.13761719 347.94617188 859.27523437 348.43359375 858.38671875 C350.66792232 854.2814696 352.84227698 850.14594338 355 846 C355.34208496 845.34692871 355.68416992 844.69385742 356.03662109 844.02099609 C361.98140152 832.52083134 366.61387178 820.52971943 371.1875 808.4375 C371.62851044 807.2738089 371.62851044 807.2738089 372.07843018 806.08660889 C380.64924449 783.89757377 380.64924449 783.89757377 386.375 760.875 C386.62056641 759.56595703 386.62056641 759.56595703 386.87109375 758.23046875 C387.25868365 756.1557228 387.63122206 754.07817216 388 752 C383.68810708 755.85122396 381.76516511 761.1785661 379.3125 766.3125 C378.47223267 768.06167725 378.47223267 768.06167725 377.61499023 769.84619141 C371.85494586 781.95832537 366.68680484 794.32253875 361.55786133 806.7121582 C357.88879501 815.57004454 354.11013456 824.33487377 350 833 C349.34 832.67 348.68 832.34 348 832 C348.15033691 831.13894653 348.15033691 831.13894653 348.30371094 830.26049805 C350.65655978 816.60890628 352.57318551 802.94981225 354.125 789.1875 C354.20504272 788.4800766 354.28508545 787.7726532 354.36755371 787.04379272 C354.76676883 783.4961566 355.15351012 779.94763055 355.52490234 776.39697266 C355.83169253 773.47934696 356.1795551 770.57088298 356.55712891 767.66162109 C358.48990244 751.98262883 358.23334381 736.26191828 358.1373291 720.49517822 C358.11652377 716.70644411 358.10766282 712.91768154 358.09765625 709.12890625 C358.07648458 701.75252886 358.04254994 694.37628846 358 687 C358.66 687 359.32 687 360 687 C395.80026356 724.80631281 418.08403166 782.60016477 427.40722656 832.83837891 C428.97890125 841.22107547 430.70270377 849.57514658 432.38818359 857.93554688 C432.98577588 860.92875454 433.56631075 863.92487314 434.14453125 866.921875 C436.04542086 876.58179209 438.23489148 885.96871763 441.15185547 895.37817383 C444.65088167 906.71928166 446.63260582 916.8412363 446.70678711 928.71118164 C446.81984442 938.56588037 448.66542592 947.76688581 450.66796875 957.38671875 C452.06369894 964.12124197 453.13607729 970.88258486 454.125 977.6875 C454.28774414 978.8007666 454.45048828 979.9140332 454.61816406 981.06103516 C455.40677239 986.55639847 456.14023321 992.05511683 456.80859375 997.56640625 C457.00074463 999.13032104 457.00074463 999.13032104 457.19677734 1000.72583008 C457.4326508 1002.67627364 457.65896022 1004.62790912 457.87353516 1006.58081055 C458.51271535 1011.91663964 459.6190056 1016.17205568 462 1021 C463.65 1021 465.3 1021 467 1021 C471.14840161 1001.44324956 468.75602111 981.7620753 464.5625 962.4375 C462.36491299 952.29704709 461.32108621 942.32000782 460.5625 932 C459.39876503 916.52842733 456.43590946 902.1288446 452.203125 887.18701172 C451.37832937 884.27243059 450.56108091 881.35592817 449.75 878.4375 C449.46471436 877.41213135 449.17942871 876.3867627 448.88549805 875.33032227 C445.78281665 863.80595749 443.45265346 852.12600918 441.0625 840.4375 C434.47547851 808.2958935 428.1821681 777.60452856 413.12597656 748.20703125 C408.43821026 739.03029218 404.20956077 729.70806034 400.1340332 720.24609375 C395.66411801 709.94781399 390.91062889 700.47082128 383.625 691.875 C383.05555664 691.19195801 382.48611328 690.50891602 381.89941406 689.80517578 C380.77706777 688.46390505 379.65030288 687.12631582 378.51855469 685.79296875 C377.22906248 684.27045577 375.95991742 682.73074668 374.6953125 681.1875 C367.76887914 672.95366757 359.31518378 668.44350263 349.625 664.0625 C343.89386853 661.41430143 338.36211189 658.80713473 333.125 655.25 C316.61665749 644.29586618 294.33308306 640.2412619 274.81665039 639.71044922 C261.10530468 639.32044751 250.25746849 637.17168744 237.77954102 631.55712891 C228.80545262 627.52013336 219.9001754 625.4976902 210.22265625 623.84375 C207.01580696 623.25509971 203.92366129 622.4383662 200.7890625 621.54296875 C194.69509678 619.8397551 188.5573943 618.79531557 182.3125 617.8125 C181.21744141 617.63525391 180.12238281 617.45800781 178.99414062 617.27539062 C176.33022777 616.84497676 173.66558105 616.41993568 171 616 C171.39940796 615.12770752 171.39940796 615.12770752 171.80688477 614.23779297 C180.67956583 594.7205677 188.10461957 575.32437123 191 554 C191.18046875 552.74703125 191.3609375 551.4940625 191.546875 550.203125 C192.35792854 544.18166691 193.01333368 538.26872383 193.25 532.19921875 C194.06187373 514.56312627 194.06187373 514.56312627 199.125 509.5 C200.70992865 508.27945205 202.33512927 507.10902731 204 506 C205.43420941 504.83374786 206.85193894 503.6468494 208.25 502.4375 C208.89710938 501.87933594 209.54421875 501.32117188 210.2109375 500.74609375 C217.11537214 494.00748615 219.18484669 485.89427362 219.32775879 476.52838135 C219.33303589 475.59604675 219.33831299 474.66371216 219.34375 473.703125 C219.3656842 472.22075348 219.3656842 472.22075348 219.38806152 470.70843506 C219.43432456 467.55566469 219.46858166 464.40295095 219.5 461.25 C219.68538864 443.0220189 220.17336879 425.1112996 224.125 407.25 C227.61013888 390.00462643 226.38897721 376.23784826 217 361 C217.94101562 360.91363281 218.88203125 360.82726562 219.8515625 360.73828125 C229.62920772 359.80609083 229.62920772 359.80609083 237 354 C238.39819512 351.3485518 238.39819512 351.3485518 239 349 C238.40832031 349.03480469 237.81664062 349.06960938 237.20703125 349.10546875 C232.27876563 349.27430004 228.98345584 349.25919114 225 346 C222.7837698 342.6756547 222.93205698 341.79919044 223.57421875 338.0390625 C223.85530034 336.69296534 224.16995784 335.35339346 224.51953125 334.0234375 C227.10098773 323.51189529 226.80359459 311.64964687 225.5 300.9375 C224.12176751 288.99281845 224.4463543 277.84045644 227.5 266.1875 C229.65060326 257.89327541 230.77620336 250.59368008 230 242 C229.91685547 240.9903418 229.83371094 239.98068359 229.74804688 238.94042969 C229.4429991 235.37379492 229.10330443 231.81216805 228.75 228.25 C228.64107422 227.10063965 228.53214844 225.9512793 228.41992188 224.76708984 C227.11647224 212.96950577 223.95444685 204.06213309 215 196 C211.82591094 193.67821263 208.4610878 191.85929811 205 190 C203.58044954 189.1981061 202.16261995 188.39316168 200.74609375 187.5859375 C188.75132841 180.77594083 177.92317244 174.96975113 164.1875 172.67578125 C161 172 161 172 158 170 C158.55166904 166.3222064 159.80209378 165.01435688 162.6875 162.75 C172.54624247 154.40798714 177.09444881 143.87050798 178.2734375 131.01953125 C178.49897265 123.8978251 177.72898375 119.09558075 174.09375 112.92578125 C173 111 173 111 173 109 C172.34 109 171.68 109 171 109 C170.731875 109.85464844 170.46375 110.70929688 170.1875 111.58984375 C166.23393243 122.94334536 159.3037656 137.13082293 149 144 C148.91363281 143.44054687 148.82726562 142.88109375 148.73828125 142.3046875 C145.79988008 125.53693039 138.31931647 106.26584335 125 95 C121.6818943 92.72884831 118.26632877 90.62811731 114.75976562 88.66088867 C108.37043522 84.99674249 104.28587801 80.2737407 100.5 74 C93.75523306 65.02427169 80.1755216 61.78572363 69.92919922 58.48413086 C58.28973385 54.66013107 51.93287351 47.99200716 46.375 37.25 C45.84648438 36.16203125 45.31796875 35.0740625 44.7734375 33.953125 C41.59054439 28.65297701 37.09417671 26.40055095 31.6875 23.6875 C27.63514783 21.565921 24.22968617 19.54960809 20.9375 16.375 C17.02226533 12.64303163 12.71810403 11.10736868 7.72265625 9.1875 C4.14466107 7.62693969 2.30283288 6.12527319 0 3 C0 2.01 0 1.02 0 0 Z " fill="#FEFEFE" transform="translate(529,0)"/>
<path d="M0 0 C170.28 0 340.56 0 516 0 C516 3.3 516 6.6 516 10 C516.33 10.66 516.66 11.32 517 12 C516.44054687 11.855625 515.88109375 11.71125 515.3046875 11.5625 C501.29893926 8.32001166 489.43459876 9.37105651 476.98828125 16.796875 C470.71279267 21.07756298 466.50094252 25.93909944 462 32 C461.34628418 31.87882812 460.69256836 31.75765625 460.01904297 31.6328125 C430.64395795 26.15123388 430.64395795 26.15123388 402.90625 35.27734375 C386.07503358 46.96209207 380.65026398 69.72482936 374 88 C387.79878047 87.12818163 397.61158376 85.32880262 407.46875 74.8671875 C409.99947389 71.78125378 412.00115716 68.44369927 414 65 C414.66 64.01 415.32 63.02 416 62 C418.66076902 69.98230706 416.84593104 76.83858432 413.40625 84.30078125 C409.02846442 92.70369745 402.82921083 96.13882158 393.94140625 98.9765625 C386.84177311 100.76610489 379.98583895 101.29592002 372.6875 101.375 C371.8639502 101.38893799 371.04040039 101.40287598 370.19189453 101.41723633 C363.48533791 101.3653572 357.08972453 100.37274338 351.66015625 96.203125 C351.13292969 95.55859375 350.60570312 94.9140625 350.0625 94.25 C349.24458984 93.29867187 349.24458984 93.29867187 348.41015625 92.328125 C340.51422121 79.29217684 345.11383655 59.60398044 348.35546875 45.8046875 C350.48771769 37.68682482 353.98268592 30.33683168 358 23 C337.18903872 36.6075805 325.34260501 52.0917338 319.41796875 76.38671875 C317.79588098 86.52855725 317.76924283 98.4775827 323.5 107.3125 C324.53226674 108.70208984 325.59467945 110.07015814 326.6953125 111.40625 C328 113 328 113 329 115 C327.80624756 115.02187378 327.80624756 115.02187378 326.58837891 115.04418945 C322.93346534 115.11930496 319.27940249 115.21575508 315.625 115.3125 C314.37332031 115.33505859 313.12164062 115.35761719 311.83203125 115.38085938 C298.77408754 115.75687346 286.91425696 118.56154138 277.5 128.25 C274.25554785 132.32847799 273.59171967 136.92957451 273 142 C273.89203125 141.43410156 274.7840625 140.86820313 275.703125 140.28515625 C276.88523996 139.54398893 278.06754148 138.80311909 279.25 138.0625 C279.83652344 137.68931641 280.42304688 137.31613281 281.02734375 136.93164062 C288.7613706 132.10873624 296.3155935 132.03771514 305.125 134 C306.41941782 134.32248472 307.7123052 134.65163812 309 135 C305.97405259 137.01729827 303.35810245 137.99293919 299.9375 139.1875 C289.77719799 143.06832805 281.90657625 148.05423733 277 158 C273.81216408 165.73120324 271.40957881 173.68818513 269.28515625 181.76953125 C265.62924286 190.95931963 259.16839434 196.98307174 251.83398438 203.31640625 C244.70944471 209.68992606 240.797862 216.70935792 238.6875 226 C238.52580322 226.69351563 238.36410645 227.38703125 238.19750977 228.1015625 C235.99218019 236.58660837 235.99218019 236.58660837 238.05859375 244.71875 C238.49300781 245.3065625 238.92742187 245.894375 239.375 246.5 C243.42799967 252.21782957 243.3837365 259.24061992 243.85791016 266.02636719 C243.97766765 267.68980287 244.14548463 269.34967673 244.32421875 271.0078125 C244.74916108 277.0325504 243.01247169 280.1903391 239.46875 284.99609375 C235.2073748 290.81015086 234.97350454 298.05282539 236 305 C238.64500111 310.65952444 243.73323415 314.87070973 248.265625 319.04296875 C252.31156199 323.60831657 252.0973662 327.69193379 251.82055664 333.50073242 C251.15094309 341.95716612 251.15094309 341.95716612 253.5859375 349.8046875 C254.85441502 351.01300008 256.15627805 352.18771303 257.49609375 353.31640625 C259 355 259 355 259.34765625 357.46484375 C258.84842663 363.42932399 257.32249881 368.67750119 253 373 C250.6171875 373.1953125 250.6171875 373.1953125 247.875 373.125 C246.96492187 373.10695313 246.05484375 373.08890625 245.1171875 373.0703125 C244.06917969 373.03550781 244.06917969 373.03550781 243 373 C245.34535519 378.68403729 247.37383233 382.00735762 253 385 C253.99 385.33 254.98 385.66 256 386 C255.55802643 388.57817916 255.08651023 390.81300482 253.984375 393.1953125 C251.18161008 401.18096811 252.03706577 411.75633357 255.58984375 419.3203125 C256.05519531 420.20460938 256.52054687 421.08890625 257 422 C264.5315688 436.47554025 268.28260258 448.03467716 268.62280273 464.55297852 C268.73265275 469.13423221 268.9952867 473.42110664 270.00390625 477.8984375 C271.56535169 484.97016572 271.35715832 492.15511824 271.390625 499.3671875 C271.60012551 509.26026728 273.72038363 517.02283047 280.33984375 524.52734375 C282.02301932 526.1512303 282.02301932 526.1512303 284.55249023 527.2578125 C287 529 287 529 287.70361328 531.44165039 C287.74212402 532.40063232 287.78063477 533.35961426 287.8203125 534.34765625 C287.87880371 535.41894775 287.93729492 536.49023926 287.99755859 537.59399414 C288.03961426 538.73860107 288.08166992 539.88320801 288.125 541.0625 C288.25969033 543.43784395 288.40033825 545.81285742 288.546875 548.1875 C288.61712891 549.3528125 288.68738281 550.518125 288.75976562 551.71875 C289.57323564 562.82955993 292.00567287 573.74097393 294.72998047 584.52172852 C295.55814925 587.83399965 296 590.55374827 296 594 C293.98046875 596.0078125 293.98046875 596.0078125 291.1875 598.125 C287.10963172 601.28742847 283.38684402 604.5137356 279.6875 608.125 C270.94445149 616.1094056 261.81849179 620.07879222 250.15625 621.4375 C240.71917213 623.11935546 233.75141101 628.87379056 226.66796875 634.9453125 C218.80652099 640.99966319 209.93992895 642.02098639 200.31274414 642.23754883 C185.35457745 642.62747472 174.86506204 645.90904261 161.6875 652.9375 C147.30294782 660.59373812 135.37044798 664.56847522 118.97851562 664.63745117 C106.13465209 664.75838942 98.88766122 671.36547596 89.75 679.8125 C85.73797869 683.49299574 81.65316707 687.0116967 77.375 690.375 C76.37210937 691.16648437 75.36921875 691.95796875 74.3359375 692.7734375 C66.71670445 698.15090439 57.86829777 700.282043 48.98553467 702.68994141 C32.35174276 707.23864278 18.43990574 713.05654566 4.4765625 723.3125 C2 725 2 725 0 725 C0 485.75 0 246.5 0 0 Z " fill="#FEFEFE" transform="translate(0,0)"/>
<path d="M0 0 C1.13423904 -0.00761353 2.26847809 -0.01522705 3.43708801 -0.02307129 C5.82986256 -0.03384016 8.22268399 -0.03673853 10.61547852 -0.03222656 C14.24121319 -0.03125757 17.86480639 -0.07285181 21.49023438 -0.1171875 C33.61378884 -0.17995994 43.07837873 0.1377255 54.08203125 5.46875 C63.5854518 8.92561081 72.71352011 8.67658992 82.65634155 8.40805054 C103.7354111 7.88937579 124.78358062 8.99132098 144.08203125 18.46875 C145.35433594 19.09330078 145.35433594 19.09330078 146.65234375 19.73046875 C174.43051929 34.92574032 192.07347591 67.24134636 201.08203125 96.46875 C208.14155553 121.03704775 210.43228241 145.00404268 210.7043457 170.44750977 C210.7997747 178.00605166 211.0041403 185.13333102 212.59838867 192.54833984 C213.62758481 198.76300126 213.62080485 205.11205479 213.85861206 211.39794922 C214.47362331 227.07205914 216.01395648 241.79194224 220.0078125 256.9921875 C222.65327556 267.74956811 223.91309301 280.80257925 221.59399414 291.77856445 C220.92718068 295.28243549 220.81522175 298.765519 220.6875 302.3203125 C220.62170571 303.89595414 220.55493396 305.4715552 220.48730469 307.04711914 C220.45245972 307.87019562 220.41761475 308.69327209 220.38171387 309.54129028 C219.64129606 326.38780958 218.17391967 342.86877717 215.08203125 359.46875 C214.85999023 360.66322754 214.63794922 361.85770508 214.40917969 363.08837891 C206.56791321 404.43568984 206.56791321 404.43568984 198.08203125 420.46875 C197.75203125 420.46875 197.42203125 420.46875 197.08203125 420.46875 C197.09250488 419.67291504 197.10297852 418.87708008 197.11376953 418.05712891 C197.15570122 414.40270223 197.18147477 410.74832643 197.20703125 407.09375 C197.22378906 405.84207031 197.24054688 404.59039063 197.2578125 403.30078125 C197.30314597 394.64208814 197.26554138 386.24502789 193.08203125 378.46875 C191.859024 380.91476451 191.83948838 383.12905431 191.64013672 385.82348633 C190.61331664 398.55468619 187.0821158 410.386703 183.08203125 422.46875 C182.75364258 423.46068359 182.42525391 424.45261719 182.08691406 425.47460938 C181.1177004 428.33953282 180.11043157 431.18708827 179.08203125 434.03125 C178.7866748 434.88114502 178.49131836 435.73104004 178.18701172 436.60668945 C176.18129645 441.91559042 173.75688635 445.07359471 169.59326172 448.89868164 C167.50809063 451.06503629 167.00825925 452.95601175 166.64453125 455.90625 C166.52207031 456.77121094 166.39960937 457.63617187 166.2734375 458.52734375 C166.17869141 459.48833984 166.17869141 459.48833984 166.08203125 460.46875 C165.42203125 460.13875 164.76203125 459.80875 164.08203125 459.46875 C163.45703125 456.40625 163.45703125 456.40625 163.08203125 453.46875 C162.42203125 453.46875 161.76203125 453.46875 161.08203125 453.46875 C161.04078125 454.644375 160.99953125 455.82 160.95703125 457.03125 C160.39245621 462.31168713 158.43653533 466.87494914 156.38964844 471.71337891 C153.97717345 477.49369232 152.38307124 483.34016688 151.08203125 489.46875 C149.05027194 486.42111104 148.34158137 484.23908078 147.45703125 480.71875 C147.19664062 479.71328125 146.93625 478.7078125 146.66796875 477.671875 C145.2811154 470.09041001 146.67925082 464.89960604 149.58203125 457.96875 C149.93716797 457.09959961 150.29230469 456.23044922 150.65820312 455.33496094 C153.95774874 447.42822904 157.84419556 439.90750413 162.08203125 432.46875 C167.83203125 433.34375 167.83203125 433.34375 170.08203125 434.46875 C169.73140625 433.705625 169.38078125 432.9425 169.01953125 432.15625 C166.75125922 423.23438002 169.24935213 412.06363109 172.08203125 403.46875 C173.07203125 403.13875 174.06203125 402.80875 175.08203125 402.46875 C167.08437509 376.18274724 130.93652785 356.44238393 108.19140625 343.87109375 C100.13819592 339.65328108 91.67595258 336.34702813 83.23046875 333.0078125 C82.47942871 332.71084473 81.72838867 332.41387695 80.95458984 332.10791016 C79.09634112 331.36107312 79.09634112 331.36107312 77.08203125 331.46875 C77.71636308 334.42235757 78.6815495 336.85900724 80.08203125 339.53125 C83.37715445 345.84286467 84.00110616 351.67101032 82.65625 358.69140625 C80.97730803 364.03723988 77.82710389 367.51966184 73.08203125 370.46875 C70.29335489 371.31264308 67.75745342 371.59919296 64.8515625 371.64453125 C52.40243382 371.96847227 44.44617063 373.00535928 35.046875 381.66015625 C26.55546162 389.47630813 19.44484585 391.99188286 7.89453125 391.703125 C-1.49388535 390.92075695 -8.21113581 383.85794391 -14.828125 377.6875 C-22.11896067 370.93098089 -29.33774084 369.30152467 -39.04296875 369.03125 C-45.72622863 368.8331364 -51.02072582 368.54234794 -55.91796875 363.46875 C-60.91353776 357.19226587 -61.72450319 351.31517796 -60.91796875 343.46875 C-59.13687883 336.76283917 -55.71818149 332.22932749 -49.91796875 328.46875 C-44.07934007 325.61430931 -37.10925318 325.53795871 -30.91796875 327.34375 C-28.91796875 328.46875 -28.91796875 328.46875 -26.91796875 330.46875 C-27.21304598 333.18346054 -27.7105094 335.72650655 -28.4453125 338.35546875 C-29.57854631 343.42224138 -29.66910468 348.66602376 -27.66796875 353.46875 C-25.86432079 355.53006195 -24.46359932 356.50316599 -21.91796875 357.46875 C-22.08006836 356.92669922 -22.24216797 356.38464844 -22.40917969 355.82617188 C-23.00165396 353.08100317 -23.04503003 350.55859504 -23.05859375 347.75 C-23.07792969 346.65300781 -23.09726562 345.55601562 -23.1171875 344.42578125 C-23.15103907 342.12127027 -23.16927075 339.81647687 -23.171875 337.51171875 C-23.13311662 331.09051815 -23.13311662 331.09051815 -26.24609375 325.765625 C-34.997445 321.51789311 -45.56025738 320.95359437 -54.91796875 323.59375 C-59.20333504 325.2921704 -61.48564062 327.4885767 -63.91796875 331.46875 C-64.92600429 334.4186454 -65.3957565 337.40075306 -65.91796875 340.46875 C-66.17578125 341.65597656 -66.43359375 342.84320313 -66.69921875 344.06640625 C-69.51993439 355.92571972 -69.51993439 355.92571972 -67.73046875 367.71875 C-65.75550395 370.71524832 -63.55596302 373.04464716 -60.91796875 375.46875 C-62.85266651 376.10237121 -64.79093614 376.72508651 -66.73046875 377.34375 C-67.80941406 377.69179688 -68.88835937 378.03984375 -70 378.3984375 C-80.10355387 381.32995532 -90.4197983 382.00376953 -100.86523438 382.6796875 C-106.78406623 383.10013116 -112.21490498 383.81368917 -117.91796875 385.46875 C-115.12372837 380.09729761 -112.01827522 376.15244093 -107.66796875 371.96875 C-106.79918091 371.11639771 -106.79918091 371.11639771 -105.9128418 370.24682617 C-102.35000251 366.77550754 -98.68828418 363.45398738 -94.90625 360.22265625 C-92.33868046 357.95774717 -89.87301688 355.60512545 -87.41796875 353.21875 C-86.56203125 352.38859375 -85.70609375 351.5584375 -84.82421875 350.703125 C-82.59345016 348.5778788 -82.59345016 348.5778788 -82.91796875 345.46875 C-87.2503451 346.36804365 -90.2191568 348.63919514 -93.73046875 351.21875 C-99.58041546 355.44987697 -105.50087835 359.55281543 -111.51171875 363.55078125 C-112.87656845 364.46188077 -114.2413957 365.37301392 -115.60620117 366.28417969 C-117.64435554 367.64421134 -119.68431703 369.00091334 -121.73184204 370.34680176 C-140.68270213 382.19969399 -140.68270213 382.19969399 -151.91796875 400.46875 C-152.98101192 409.48023524 -152.35343018 417.45285585 -147.91796875 425.46875 C-147.58796875 425.79875 -147.25796875 426.12875 -146.91796875 426.46875 C-146.6860401 427.98344448 -146.50581637 429.50629562 -146.35546875 431.03125 C-146.27167969 431.85753906 -146.18789063 432.68382812 -146.1015625 433.53515625 C-146.04097656 434.17324219 -145.98039062 434.81132813 -145.91796875 435.46875 C-144.59796875 435.46875 -143.27796875 435.46875 -141.91796875 435.46875 C-138.73270832 441.29054953 -136.89662187 446.58718657 -135.66796875 453.09375 C-135.49813477 453.9609668 -135.32830078 454.82818359 -135.15332031 455.72167969 C-133.81072756 463.03975569 -133.47443336 470.0272118 -133.91796875 477.46875 C-136.48282574 474.30067841 -138.2129753 471.03792664 -139.95703125 467.359375 C-140.23901367 466.76509201 -140.52099609 466.17080902 -140.81152344 465.55851746 C-141.72922257 463.61521845 -142.63758269 461.66781449 -143.54296875 459.71875 C-143.8564325 459.04482208 -144.16989624 458.37089417 -144.49285889 457.67654419 C-153.11981004 439.06013003 -159.85279325 419.9524733 -166.23046875 400.46875 C-166.48572327 399.69191864 -166.74097778 398.91508728 -167.00396729 398.11471558 C-170.42617817 387.66020605 -173.39687021 377.17680834 -175.91796875 366.46875 C-181.85134653 375.73343198 -181.18083135 385.90409572 -181.04296875 396.59375 C-181.03291157 397.94530581 -181.02379059 399.29686893 -181.015625 400.6484375 C-180.99224194 403.92206558 -180.95946936 407.19530994 -180.91796875 410.46875 C-200.40159721 385.93606199 -198.51221283 335.09315873 -198.91796875 305.46875 C-198.94375 304.2813623 -198.96953125 303.09397461 -198.99609375 301.87060547 C-199.07375251 298.23666083 -199.12521858 294.60325991 -199.16796875 290.96875 C-199.18956055 289.90857666 -199.21115234 288.84840332 -199.23339844 287.75610352 C-199.25598603 282.07402173 -198.83884666 276.70068903 -197.83874512 271.12149048 C-195.18407597 256.11051859 -195.5392109 241.03733527 -195.65368652 225.85284424 C-195.67278636 222.83172361 -195.67683987 219.81066463 -195.68040085 216.78949165 C-195.68560334 213.1226554 -195.70006224 209.45587037 -195.71484375 205.7890625 C-195.71672447 205.11478336 -195.71860519 204.44050423 -195.72054291 203.74579239 C-195.74957592 195.70353994 -196.06259152 187.74848871 -196.68914795 179.73123169 C-197.02358908 174.96283628 -197.09804518 170.20835408 -197.12109375 165.4296875 C-197.12792679 164.43649506 -197.13475983 163.44330261 -197.14179993 162.42001343 C-197.15874609 159.22789031 -197.16512406 156.03591544 -197.16796875 152.84375 C-197.16997284 151.74824829 -197.17197693 150.65274658 -197.17404175 149.52404785 C-197.18232466 130.93990506 -196.18242791 112.6354348 -194.28149414 94.15869141 C-193.4101245 85.31390915 -192.74012192 76.48432909 -192.85546875 67.59375 C-192.85998047 66.89378906 -192.86449219 66.19382812 -192.86914062 65.47265625 C-192.88056534 63.80464722 -192.89847341 62.13668423 -192.91796875 60.46875 C-192.25796875 60.46875 -191.59796875 60.46875 -190.91796875 60.46875 C-189.83468654 62.07416823 -188.82746358 63.73110997 -187.85546875 65.40625 C-184.72378306 70.51168717 -181.22999158 74.4499338 -176.8359375 78.49609375 C-173.69751515 81.72400268 -172.98984168 83.54238782 -172.63671875 88.09375 C-172.76629049 93.08226189 -174.06079782 97.69297553 -175.41796875 102.46875 C-175.77568359 103.77392578 -175.77568359 103.77392578 -176.140625 105.10546875 C-176.72407775 107.22923675 -177.31663009 109.34999079 -177.91796875 111.46875 C-170.34414391 107.8383296 -166.64530993 101.19184594 -163.91796875 93.46875 C-160.64502033 83.55692326 -160.27635521 73.08965457 -164.79296875 63.59375 C-165.33953125 62.53285156 -165.88609375 61.47195312 -166.44921875 60.37890625 C-169.22238907 54.88419379 -170.22686485 49.64667199 -169.91796875 43.46875 C-167.18076298 44.83735289 -166.9477379 46.37688802 -165.73046875 49.15625 C-161.62999967 57.53650896 -155.55038711 61.35724985 -146.91796875 64.46875 C-143.78263478 65.40837583 -140.98330414 65.58540893 -137.71484375 65.56640625 C-136.73515625 65.56318359 -135.75546875 65.55996094 -134.74609375 65.55664062 C-133.7303125 65.54826172 -132.71453125 65.53988281 -131.66796875 65.53125 C-130.63671875 65.52673828 -129.60546875 65.52222656 -128.54296875 65.51757812 C-126.00124302 65.50581088 -123.45963556 65.48937011 -120.91796875 65.46875 C-127.6226062 72.30054437 -134.04665815 76.8797343 -142.91796875 80.46875 C-143.90796875 80.96375 -143.90796875 80.96375 -144.91796875 81.46875 C-134.97588221 84.38280985 -125.13524278 84.34466665 -115.60546875 79.96875 C-108.9476274 76.28871486 -104.01932977 71.16546158 -99.16796875 65.3828125 C-93.49707266 60.5586127 -86.31806941 59.93631056 -79.16796875 59.09375 C-64.63319454 57.11651974 -52.69394311 52.06683759 -43.30859375 40.38671875 C-38.42759812 33.65478377 -34.80813186 26.39999078 -31.45336914 18.82226562 C-27.96150817 11.03821783 -24.35543009 5.5197758 -16.4909668 1.88476562 C-11.06799387 -0.08205281 -5.71262798 0.00106812 0 0 Z " fill="#FDFDFD" transform="translate(493.91796875,148.53125)"/>
<path d="M0 0 C2 1.125 2 1.125 3 3 C2.77589301 7.18333056 2.3385104 9.49223439 0 13 C0.28082798 15.34023315 0.62468554 17.67305036 1 20 C1.30365771 24.57127962 1.1939617 28.75036574 0 33.1875 C-1.30437848 38.16044295 -1.89384569 41.3195701 0.5625 45.9375 C2.34879215 49.74307893 1.88805854 51.96337028 1 56 C-0.0828125 55.9690625 -0.0828125 55.9690625 -1.1875 55.9375 C-3.92326456 55.99829477 -6.33178096 56.43048098 -9 57 C-8.77183594 58.20398438 -8.54367187 59.40796875 -8.30859375 60.6484375 C-8.01788438 62.22389475 -7.7275386 63.79941912 -7.4375 65.375 C-7.28603516 66.1690625 -7.13457031 66.963125 -6.97851562 67.78125 C-5.88671875 73.7734375 -5.88671875 73.7734375 -7 76 C-7.99 74.35 -8.98 72.7 -10 71 C-10.99 71.495 -10.99 71.495 -12 72 C-12.2358396 77.77807024 -11.86783046 82.51324804 -10 88 C-11.65 87.01 -13.3 86.02 -15 85 C-13.09115308 89.54170996 -13.09115308 89.54170996 -11 94 C-13.64 93.67 -16.28 93.34 -19 93 C-18.79375 93.53625 -18.5875 94.0725 -18.375 94.625 C-17.86081573 97.88150037 -18.87150903 99.9114984 -20 103 C-20.71448244 105.65653204 -21.35443031 108.32549699 -22 111 C-22.309375 110.360625 -22.61875 109.72125 -22.9375 109.0625 C-23.8345163 107.06389179 -23.8345163 107.06389179 -25 106 C-25.33 107.98 -25.66 109.96 -26 112 C-26.99 111.34 -27.98 110.68 -29 110 C-29.12117187 111.07378906 -29.24234375 112.14757812 -29.3671875 113.25390625 C-29.53615615 114.69013975 -29.70544404 116.12633572 -29.875 117.5625 C-29.95363281 118.26697266 -30.03226563 118.97144531 -30.11328125 119.69726562 C-30.66633903 124.3131709 -31.61195836 128.56176603 -33 133 C-35.91675425 130.37492117 -37.85806391 127.26600998 -40 124 C-40.25394531 125.21816406 -40.50789062 126.43632813 -40.76953125 127.69140625 C-41.11681325 129.31518425 -41.46449055 130.93887775 -41.8125 132.5625 C-41.97814453 133.36236328 -42.14378906 134.16222656 -42.31445312 134.98632812 C-43.39313513 139.97268834 -44.83484942 144.37811697 -47 149 C-48.62276158 146.56585763 -49.61744792 144.68680554 -50.625 142 C-50.88539063 141.319375 -51.14578125 140.63875 -51.4140625 139.9375 C-52 138 -52 138 -52 135 C-52.66 135 -53.32 135 -54 135 C-54.18175781 135.61746094 -54.36351562 136.23492188 -54.55078125 136.87109375 C-56.25720447 142.62042737 -58.06654726 148.32305366 -60 154 C-61.83515008 150.39353114 -63.42371474 146.72576515 -65 143 C-67.45526487 145.45526487 -67.86969905 147.37665348 -68.875 150.6875 C-70.44157532 155.58157552 -72.24749738 159.67463873 -75 164 C-75.33 164 -75.66 164 -76 164 C-76.12117187 163.36191406 -76.24234375 162.72382812 -76.3671875 162.06640625 C-76.53476562 161.24011719 -76.70234375 160.41382813 -76.875 159.5625 C-77.11863281 158.32693359 -77.11863281 158.32693359 -77.3671875 157.06640625 C-77.68042969 156.04353516 -77.68042969 156.04353516 -78 155 C-78.66 154.67 -79.32 154.34 -80 154 C-80.0825 155.216875 -80.165 156.43375 -80.25 157.6875 C-80.75165934 161.78074938 -81.98711119 164.07841085 -85 167 C-85.66 167 -86.32 167 -87 167 C-86.34 162.38 -85.68 157.76 -85 153 C-85.66 153 -86.32 153 -87 153 C-87.28875 154.11375 -87.5775 155.2275 -87.875 156.375 C-89 160 -89 160 -91 162 C-94.93952713 160.68682429 -95.24957711 159.18611861 -97.125 155.5625 C-97.64320313 154.57378906 -98.16140625 153.58507812 -98.6953125 152.56640625 C-99.46797975 151.04651888 -100.23749462 149.52501076 -101 148 C-101.99 148.33 -102.98 148.66 -104 149 C-105.03038956 151.56042066 -105.03038956 151.56042066 -105.6875 154.5625 C-105.93886719 155.57441406 -106.19023438 156.58632813 -106.44921875 157.62890625 C-106.72185547 158.80259766 -106.72185547 158.80259766 -107 160 C-107.61875 159.21625 -108.2375 158.4325 -108.875 157.625 C-110.89858661 155.03162353 -110.89858661 155.03162353 -113 153 C-113.99 153 -114.98 153 -116 153 C-116.19335938 153.60328125 -116.38671875 154.2065625 -116.5859375 154.828125 C-116.84632813 155.62734375 -117.10671875 156.4265625 -117.375 157.25 C-117.63023437 158.03890625 -117.88546875 158.8278125 -118.1484375 159.640625 C-118.95173667 161.86627958 -119.89711662 163.90931672 -121 166 C-124 161.375 -124 161.375 -124 158 C-125.99983534 158.79117904 -125.99983534 158.79117904 -128 160 C-128.33 160.99 -128.66 161.98 -129 163 C-134.10884605 161.56952311 -138.01744261 159.28610306 -142.375 156.375 C-143.01566406 155.95476562 -143.65632813 155.53453125 -144.31640625 155.1015625 C-145.88155698 154.07370232 -147.44134314 153.03768114 -149 152 C-148.67 153.98 -148.34 155.96 -148 158 C-150.99324263 156.9024777 -151.84610901 156.32317108 -153.25 153.375 C-153.4975 152.59125 -153.745 151.8075 -154 151 C-158.13767263 155.43322068 -159.95528874 160.39879629 -162 166 C-169.70196859 159.94845325 -170.81353185 149.08584818 -172 140 C-172.19335938 140.62648438 -172.38671875 141.25296875 -172.5859375 141.8984375 C-172.84632813 142.71570313 -173.10671875 143.53296875 -173.375 144.375 C-173.63023437 145.18710937 -173.88546875 145.99921875 -174.1484375 146.8359375 C-175 149 -175 149 -177 151 C-179.72399099 145.16287645 -181.41039668 139.23440168 -183 133 C-183.66 133 -184.32 133 -185 133 C-185 137.95 -185 142.9 -185 148 C-194.29607052 140.99844618 -199.06325704 129.3437802 -201 118 C-201.03939557 116.333799 -201.05048188 114.66590197 -201 113 C-201.66 113 -202.32 113 -203 113 C-203.103125 113.66 -203.20625 114.32 -203.3125 115 C-204.19213564 118.83841009 -205.56969896 122.33096691 -207 126 C-207.66 126 -208.32 126 -209 126 C-209 122.37 -209 118.74 -209 115 C-212.40739705 117.24578442 -215.76478258 119.51137122 -219 122 C-220.21797875 119.56404249 -220.09958619 118.03425772 -220.0625 115.31640625 C-220.05476563 114.38892578 -220.04703125 113.46144531 -220.0390625 112.50585938 C-220.01307267 110.54752535 -219.98703121 108.58919202 -219.9609375 106.63085938 C-219.95320313 105.70208984 -219.94546875 104.77332031 -219.9375 103.81640625 C-219.92589844 102.96506104 -219.91429687 102.11371582 -219.90234375 101.23657227 C-219.90500068 98.82742547 -219.90500068 98.82742547 -221 96 C-221.99 98.64 -222.98 101.28 -224 104 C-225.83553796 101.24669306 -226.40778129 99.88342796 -227.0703125 96.76953125 C-227.24433594 95.96708984 -227.41835938 95.16464844 -227.59765625 94.33789062 C-227.77167969 93.50451172 -227.94570313 92.67113281 -228.125 91.8125 C-228.30675781 90.96751953 -228.48851562 90.12253906 -228.67578125 89.25195312 C-229.12292753 87.1691928 -229.56222376 85.08474994 -230 83 C-232.15634036 83 -233.92446352 83.4465236 -236 84 C-236.55353075 72.29384966 -236.55353075 72.29384966 -233 68 C-233.77214844 67.79761719 -234.54429687 67.59523438 -235.33984375 67.38671875 C-238.97936209 65.48946617 -239.29360602 63.65455181 -240.5625 59.8125 C-242.41794362 54.39657695 -242.41794362 54.39657695 -245.375 49.5625 C-248.21696674 43.33203445 -246.89402908 36.19121516 -245.48901367 29.60449219 C-245.00771525 27.0410915 -244.81328351 24.62763466 -244.71875 22.0234375 C-244.66267578 20.64671875 -244.66267578 20.64671875 -244.60546875 19.2421875 C-244.53486926 17.3229272 -244.46455908 15.40365624 -244.39453125 13.484375 C-244.33845703 12.11152344 -244.33845703 12.11152344 -244.28125 10.7109375 C-244.25095703 9.87868652 -244.22066406 9.04643555 -244.18945312 8.18896484 C-244 6 -244 6 -243 3 C-239.01057352 0.72032772 -236.38458323 0.96897177 -232 2 C-229.32421875 3.3828125 -229.32421875 3.3828125 -226.6875 5.125 C-225.72714844 5.75921875 -224.76679688 6.3934375 -223.77734375 7.046875 C-221.35677881 8.74910069 -219.04929072 10.51470429 -216.75 12.375 C-195.05513598 29.59192056 -168.96717412 37.79120073 -142 42 C-140.87464844 42.19335938 -139.74929688 42.38671875 -138.58984375 42.5859375 C-101.94707726 46.81241546 -58.25073537 38.84418127 -28.70581055 15.82446289 C-25.42928905 13.21962094 -22.28181096 10.50486746 -19.1875 7.6875 C-7.88897774 -2.47497341 -7.88897774 -2.47497341 0 0 Z " fill="#FCFCFC" transform="translate(623,585)"/>
<path d="M0 0 C1.17369141 -0.02126953 1.17369141 -0.02126953 2.37109375 -0.04296875 C4.5625 0.1875 4.5625 0.1875 7.5625 2.1875 C7.8127497 4.87125651 7.87086071 7.31134727 7.79101562 9.99072266 C7.77856056 10.79165659 7.7661055 11.59259052 7.75327301 12.41779518 C7.70717806 15.00841403 7.63732306 17.59756223 7.5625 20.1875 C7.54138153 21.01142998 7.52026306 21.83535995 7.49850464 22.68425751 C7.36248317 27.93523263 7.19081526 33.18456132 7.00699806 38.43405914 C6.82708832 43.61605638 6.6615758 48.79852083 6.49487305 53.98095703 C6.45948268 55.07827904 6.42409231 56.17560104 6.38762951 57.30617523 C5.06695254 98.49183192 4.24884166 139.65293961 4.25064087 180.86078644 C4.25000975 184.25996316 4.24552912 187.65911624 4.24023438 191.05828857 C4.21216521 214.33224304 4.5481119 237.50865184 5.86700439 260.74725342 C6.63171761 274.327932 6.70147521 287.83599617 6.44604492 301.43505859 C6.39836631 304.21451029 6.36826983 306.99373356 6.33984375 309.7734375 C6.31808578 310.60007904 6.29632782 311.42672058 6.27391052 312.27841187 C6.21609139 314.78526501 6.21609139 314.78526501 6.5625 318.1875 C10.34859835 320.71156556 13.18585478 320.7682892 17.5625 320.1875 C25.87561326 317.86723038 33.16193947 313.84506252 40.5625 309.5 C42.58205888 308.32722968 44.60283597 307.15655388 46.625 305.98828125 C47.50285156 305.47434814 48.38070312 304.96041504 49.28515625 304.4309082 C53.51580322 302.12101487 56.78461212 301.64806105 61.5625 302.1875 C68.82605432 305.1117881 72.85184171 310.79921914 76.93676758 317.16064453 C79.95173542 321.76465852 83.15959963 325.2322999 88.67773438 326.78125 C92.70333547 327.34815929 96.67001544 327.33006405 100.73046875 327.3203125 C101.60649246 327.32126923 102.48251617 327.32222595 103.38508606 327.32321167 C105.22995069 327.32389025 107.07481774 327.32205847 108.91967773 327.31787109 C111.7505423 327.31249897 114.5812496 327.31783686 117.41210938 327.32421875 C119.20572952 327.32355829 120.99934956 327.32227779 122.79296875 327.3203125 C123.64191208 327.32233673 124.49085541 327.32436096 125.36552429 327.32644653 C129.5982651 327.42875726 129.5982651 327.42875726 133.5625 326.1875 C133.71803979 319.73259891 133.24155998 313.77976381 132.0625 307.4375 C131.88871826 306.50139893 131.71493652 305.56529785 131.53588867 304.60083008 C125.24970725 272.42175491 113.84336557 240.40092299 100.35717773 210.51660156 C99.5625 208.1875 99.5625 208.1875 100.5625 205.1875 C111.41994067 216.1190529 118.77391389 230.31071433 126.1015625 243.71484375 C132.81920262 255.9861237 140.11749789 267.87624801 147.82226562 279.54931641 C149.49922862 282.09158101 151.16891595 284.63854125 152.8380127 287.18597412 C154.42663497 289.60678284 156.02141286 292.02349423 157.61767578 294.43927002 C158.40374017 295.63053341 159.18797285 296.82300783 159.97021484 298.01678467 C167.29372565 309.18198875 173.10238636 317.16913031 185.3125 323.0625 C187.1828017 323.99637507 189.05261543 324.93122823 190.921875 325.8671875 C191.74139648 326.26663574 192.56091797 326.66608398 193.40527344 327.07763672 C195.5625 328.1875 195.5625 328.1875 198.5625 330.1875 C94.2825 330.1875 -9.9975 330.1875 -117.4375 330.1875 C-115.7875 328.8675 -114.1375 327.5475 -112.4375 326.1875 C-104.76638589 311.66717686 -107.80636558 291.49053507 -112.36842346 276.2928772 C-113.6510397 272.18456362 -114.9718356 268.08970756 -116.3125 264 C-119.9031674 253.0203002 -123.10365268 242.22257218 -125.06344604 230.8183136 C-126.05751376 225.23626598 -127.51510924 220.70862919 -131.01464844 216.11914062 C-132.6490129 213.90035345 -133.35706788 211.89957413 -134.203125 209.28125 C-136.6006691 202.4375986 -139.82929442 196.10073981 -143.1875 189.6875 C-143.51186035 189.0638858 -143.8362207 188.44027161 -144.17041016 187.79776001 C-151.39147066 173.940224 -159.27810496 160.51390616 -167.4375 147.1875 C-168.07187988 146.14722656 -168.70625977 145.10695313 -169.35986328 144.03515625 C-180.43174406 125.92739351 -191.88169994 107.94737779 -204.99609375 91.234375 C-206.4375 89.1875 -206.4375 89.1875 -206.4375 87.1875 C-205.29087891 86.7853125 -205.29087891 86.7853125 -204.12109375 86.375 C-197.75755197 84.04706173 -191.85744195 81.4617395 -185.9375 78.1875 C-167.62283637 68.11029142 -167.62283637 68.11029142 -160.4375 69.1875 C-146.12947743 80.23980486 -137.50517877 103.28392182 -132.0078125 119.96875 C-131.70943985 120.87089233 -131.4110672 121.77303467 -131.10365295 122.70251465 C-127.89758922 132.58219084 -125.33502569 142.60066212 -122.875 152.6875 C-122.63938354 153.64437714 -122.40376709 154.60125427 -122.16101074 155.58712769 C-110.2861861 203.83923211 -98.67744568 255.35787708 -100.58422852 305.34667969 C-100.79193164 312.54509045 -100.4242079 317.10290422 -96.4375 323.1875 C-91.51821356 327.86682124 -87.89990586 328.31100831 -81.25 328.25 C-79.97769531 328.24097656 -78.70539063 328.23195313 -77.39453125 328.22265625 C-76.41871094 328.21105469 -75.44289062 328.19945312 -74.4375 328.1875 C-74.78976329 318.36110951 -75.14618229 308.53487974 -75.50732994 298.70881176 C-75.67506775 294.14179644 -75.84158653 289.57474482 -76.00488281 285.00756836 C-76.19461972 279.70671991 -76.38859942 274.40603957 -76.5859375 269.10546875 C-76.63490708 267.78412839 -76.63490708 267.78412839 -76.68486595 266.43609428 C-77.11576074 254.94231227 -77.68837956 243.46683225 -78.40622139 231.98759079 C-79.45085382 215.25240298 -79.58671612 198.61110744 -79.32104492 181.8449707 C-79.04171607 162.60705633 -80.20063618 144.64229257 -86 126.1875 C-86.34369629 125.06432373 -86.68739258 123.94114746 -87.04150391 122.78393555 C-92.52977012 105.13364205 -98.82251529 87.77160361 -105.875 70.6875 C-106.2879834 69.68436768 -106.7009668 68.68123535 -107.12646484 67.64770508 C-107.71161865 66.25974731 -107.71161865 66.25974731 -108.30859375 64.84375 C-108.81797485 63.63428711 -108.81797485 63.63428711 -109.33764648 62.40039062 C-111.20229509 58.64874246 -112.47761433 56.56745474 -116.4375 55 C-121.34675125 53.80699916 -126.41083991 53.53291245 -131.4375 53.1875 C-123.23087826 47.71641884 -112.07306419 46.80509293 -102.4375 46.75 C-101.66148437 46.7401709 -100.88546875 46.7303418 -100.0859375 46.72021484 C-92.39326927 46.83421701 -86.58601612 49.30546418 -80.125 53.375 C-74.4582267 56.49798694 -69.82120231 57.55675789 -63.4375 56.1875 C-53.44413571 52.09526181 -46.30373184 43.98684776 -40.4375 35.1875 C-32.52788722 49.63114072 -35.17704123 68.06740001 -36.55444336 83.85375977 C-36.75190013 86.14706853 -36.93002713 88.44139011 -37.10742188 90.73632812 C-38.70179096 110.16816794 -38.70179096 110.16816794 -44.5 115.1875 C-48.88086277 118.17021508 -50.82503027 118.39028764 -55.9765625 117.7734375 C-60.27452673 116.75011268 -64.30255867 114.32244133 -67.4375 111.1875 C-67.11734748 119.52747322 -65.92333686 127.55013699 -64.4375 135.75 C-62.15890528 148.40593137 -59.96484715 161.58975727 -61.9367218 174.44108582 C-62.41492643 178.01862295 -62.57085784 181.41051232 -62.58276367 185.0168457 C-62.5860713 185.66324131 -62.58937893 186.30963692 -62.59278679 186.97562027 C-62.602116 189.10485804 -62.6040941 191.23402452 -62.60546875 193.36328125 C-62.60945871 194.87597201 -62.61364901 196.38866225 -62.61802673 197.90135193 C-62.62939674 202.76757891 -62.62768905 207.63376393 -62.625 212.5 C-62.625056 214.16955566 -62.62511705 215.83911133 -62.62518311 217.50866699 C-62.61794792 242.0592022 -62.22260061 266.52352303 -60.58001709 291.02661133 C-60.38513511 293.98147286 -60.20698897 296.93727416 -60.02789307 299.89312744 C-59.6772148 305.63863376 -59.31026828 311.38326978 -58.90234375 317.125 C-58.80360962 318.53072266 -58.80360962 318.53072266 -58.70288086 319.96484375 C-58.56016049 322.22386223 -58.56016049 322.22386223 -57.4375 324.1875 C-53.7134209 325.4288597 -50.25305854 325.33060687 -46.375 325.3203125 C-45.58730225 325.32126923 -44.79960449 325.32222595 -43.98803711 325.32321167 C-42.32372966 325.32389174 -40.65941953 325.32204953 -38.99511719 325.31787109 C-36.44720504 325.31252038 -33.89946917 325.31782192 -31.3515625 325.32421875 C-29.73437461 325.32355794 -28.11718683 325.32227671 -26.5 325.3203125 C-25.35615845 325.32334885 -25.35615845 325.32334885 -24.18920898 325.32644653 C-21.00603084 325.31233094 -18.47977683 325.20159228 -15.4375 324.1875 C-4.50331398 302.31912796 -8.25759579 266.57663299 -8.30078125 242.73046875 C-8.30141256 241.81778732 -8.30204388 240.9051059 -8.30269432 239.96476746 C-8.33309937 215.02011005 -8.93258711 190.08461412 -9.55444336 165.14892578 C-9.68681219 159.82712684 -9.81194405 154.50524702 -9.92944336 149.18310547 C-10.6597216 112.63830747 -10.6597216 112.63830747 -12.90234375 76.1640625 C-12.9616186 75.4534668 -13.02089344 74.74287109 -13.08196449 74.01074219 C-14.46921248 57.85270844 -17.77629037 42.94058526 -24.20214844 28.04248047 C-25.934331 23.96771805 -27.14766149 20.69575731 -26.4375 16.1875 C-21.59261869 9.00989806 -14.07401915 4.84258609 -6.4375 1.1875 C-4.0978331 0.01766655 -2.60358473 0.0213759 0 0 Z " fill="#FCFCFC" transform="translate(240.4375,693.8125)"/>
<path d="M0 0 C3.7484646 4.36585877 6.54251525 9.11719948 9.4375 14.0625 C13.66861708 21.20263298 18.02031653 28.24099012 22.5625 35.1875 C23.10414795 36.01612549 23.6457959 36.84475098 24.20385742 37.69848633 C26.29647898 40.89248765 28.39482474 44.08266717 30.49755859 47.27001953 C39.22633189 60.51438426 47.01137407 73.89604925 54.00756836 88.14111328 C60.28777133 100.9241141 66.87115467 113.27514435 75 125 C75.41668945 125.60295898 75.83337891 126.20591797 76.26269531 126.82714844 C90.85104566 147.58884736 110.31730171 161.16087839 131.87036133 173.96728516 C138.2323195 177.79014661 143.7536141 181.83701159 149.31640625 186.75390625 C157.38254009 193.50503719 169.43728526 201.92399307 180.3125 202.5625 C187.56859556 201.45563797 191.06034887 197.14054639 195.25390625 191.52734375 C198.05196442 187.47735798 200.56341978 183.27517189 203 179 C199.34241298 179.78889132 195.97586769 181.12878614 192.5 182.5 C182.91446276 186.28145047 174.74005643 187.77514856 164.8125 183.9375 C152.58921707 178.26804448 145.8033329 168.22113018 140.64453125 156.015625 C139.77185126 153.28651666 139.70916938 150.83559855 140 148 C145.09231315 147.03343356 148.90405354 147.11783498 153.9375 148.3125 C155.16339844 148.59351563 156.38929688 148.87453125 157.65234375 149.1640625 C160.12926814 149.78257104 162.55584952 150.45900591 165 151.1875 C190.70354319 157.41215764 222.41855952 142.96100575 244 130 C262.07455669 118.51201591 272.87874157 101.77130874 284.4284668 84.31152344 C295.03531646 68.35773475 307.51882866 53.69935436 320.125 39.3046875 C322.80180843 36.2447069 325.40952721 33.13332922 328 30 C329.56563076 33.13126152 328.26094433 36.04424406 327.48046875 39.3125 C327.30667694 40.06070007 327.13288513 40.80890015 326.9538269 41.57977295 C326.37436942 44.05548959 325.7823469 46.52793816 325.1875 49 C324.98470428 49.84856567 324.78190857 50.69713135 324.57296753 51.57141113 C313.13154746 99.27094712 297.25367398 143.51669353 269.24023438 184.19482422 C267.93611472 186.09298578 266.64701538 188.00078294 265.359375 189.91015625 C255.65817251 204.23886369 245.33552598 217.9261186 234 231 C233.39929688 231.72445312 232.79859375 232.44890625 232.1796875 233.1953125 C222.96385361 244.19198386 207.59878809 260.09243701 192.78125 262.3359375 C171.98785407 262.6919888 145.65021297 248.18295924 130.12109375 235.05078125 C123.84498644 228.9827217 121.60957187 223.13397572 119.7578125 214.7265625 C118.04546882 208.56565585 112.98921176 205.07853427 108.34765625 201.0703125 C90.28499523 185.14150994 78.11667613 165.41422835 65.77441406 144.92431641 C63.83393 141.72630897 61.84549354 138.56252907 59.83740234 135.40673828 C50.66574573 120.98252601 42.80175355 105.84174531 34.94921875 90.671875 C33.10179755 87.10585246 31.23358529 83.55306957 29.33203125 80.015625 C0 25.39891062 0 25.39891062 0 0 Z " fill="#FDFDFD" transform="translate(324,651)"/>
<path d="M0 0 C6.76076555 2.25358852 6.76076555 2.25358852 9.3125 5.5 C9.80363281 6.1084375 10.29476563 6.716875 10.80078125 7.34375 C13.68174437 11.32266975 13.49791334 15.2634398 13 20 C12.3524007 22.5414191 11.67137424 25.04711494 10.9375 27.5625 C8.44120348 36.43544245 8.69239625 40.7395959 12.8125 49 C17.01472925 56.43734668 22.14682609 63.07906215 27.35009766 69.83496094 C34.37969717 79.05935995 41.16860769 88.46894857 47.28515625 98.32421875 C51.86470341 105.46998141 57.00532074 112.26502299 62.00390625 119.12109375 C70.00941033 130.12027361 77.77029361 141.26923777 85.359375 152.56005859 C86.35580771 154.04195569 87.35504334 155.52198003 88.359375 156.99853516 C95.49989561 167.5093583 101.2495155 178.68688123 107 190 C104 190 104 190 101.84277344 188.19921875 C101.02325195 187.37035156 100.20373047 186.54148437 99.359375 185.6875 C98.45316406 184.77613281 97.54695313 183.86476563 96.61328125 182.92578125 C96.14229004 182.44447754 95.67129883 181.96317383 95.18603516 181.46728516 C93.77614387 180.0267128 92.35495991 178.59722044 90.93359375 177.16796875 C85.75820881 171.93402217 80.78676654 166.58935732 76 161 C74.50429773 159.32947538 73.00495734 157.66219168 71.5 156 C68.77711028 152.986853 66.08687301 149.95285931 63.4375 146.875 C60.4306373 143.41676068 57.22817411 140.2069987 53.9609375 136.99609375 C52.08338879 135.08488381 50.35190586 133.10965365 48.625 131.0625 C45.23114336 127.12224013 41.48970932 123.70633251 37.5859375 120.27734375 C35.92424264 118.81394783 34.28160775 117.32845942 32.6640625 115.81640625 C27.68196981 111.17362552 22.47272139 106.97935516 17 102.9375 C16.34040283 102.44781738 15.68080566 101.95813477 15.0012207 101.45361328 C11.82678703 98.87780754 11.82678703 98.87780754 8 98 C10.60583209 105.00545841 13.23087246 112.0034036 15.87207031 118.99560547 C16.80198433 121.47255825 17.71446052 123.95448191 18.6171875 126.44140625 C21.27330388 133.51688011 24.42239771 139.47472276 28.68359375 145.65380859 C31.59057054 149.99592165 33.3542574 154.30697937 35 159.25 C37.60035204 166.80289345 41.17790902 171.58199182 47 177 C48.21154976 178.15691124 49.42243955 179.31451387 50.6328125 180.47265625 C55.76678489 185.34526277 60.93715551 190.15414667 66.375 194.6875 C71.23699623 198.87742764 75.04216452 203.9758047 79 209 C87.49872257 219.77371523 96.73349417 229.92950684 106.5859375 239.484375 C110 243 110 243 116 251 C77.72 251 39.44 251 0 251 C0 168.17 0 85.34 0 0 Z " fill="#FDFDFD" transform="translate(0,773)"/>
<path d="M0 0 C1.06985893 -0.00635216 1.06985893 -0.00635216 2.16133118 -0.01283264 C4.50735217 -0.02280562 6.85318004 -0.02273112 9.19921875 -0.01953125 C10.00437927 -0.018927 10.80953979 -0.01832275 11.63909912 -0.0177002 C32.28063822 0.02419496 52.75135827 1.06141455 73.19921875 4.04296875 C74.24867676 4.19217773 75.29813477 4.34138672 76.37939453 4.49511719 C92.74274163 7.10365076 107.78007648 16.78298357 117.76171875 29.98046875 C128.83834879 46.87615789 128.07403607 73.31442334 128.07202148 92.84985352 C128.07421846 95.23015978 128.09247825 97.61000888 128.11132812 99.99023438 C128.18758589 120.26028677 128.18758589 120.26028677 123.88671875 128.16796875 C114.61502508 117.73731337 108.3538357 106.35713702 108.06640625 92.2890625 C107.79544188 87.58252916 106.36828714 84.1292301 103.88671875 80.16796875 C103.47164062 79.50539063 103.0565625 78.8428125 102.62890625 78.16015625 C97.24764552 70.97575056 88.79175525 67.03543847 80.88671875 63.16796875 C80.22671875 63.16796875 79.56671875 63.16796875 78.88671875 63.16796875 C79.634375 63.77125 80.38203125 64.37453125 81.15234375 64.99609375 C82.1371875 65.7953125 83.12203125 66.59453125 84.13671875 67.41796875 C85.11125 68.206875 86.08578125 68.99578125 87.08984375 69.80859375 C92.29884677 74.20278065 92.29884677 74.20278065 93.88671875 76.16796875 C93.48535156 78.29003906 93.48535156 78.29003906 92.88671875 80.16796875 C91.51906372 80.16011353 91.51906372 80.16011353 90.1237793 80.15209961 C86.68887682 80.13489352 83.25402122 80.12243963 79.8190918 80.11303711 C78.34219635 80.10805791 76.8653057 80.10127212 75.38842773 80.0925293 C65.39499313 80.00580597 65.39499313 80.00580597 55.4296875 80.6640625 C48.56892336 81.3911807 41.69560251 81.31758271 34.80517578 81.29833984 C32.49505195 81.29292972 30.18511833 81.29834236 27.875 81.3046875 C26.39192666 81.30402746 24.90885343 81.30274783 23.42578125 81.30078125 C22.74238678 81.30280548 22.05899231 81.30482971 21.35488892 81.30691528 C17.73399056 81.28921485 14.41065462 80.99538605 10.88671875 80.16796875 C3.89880542 79.25398671 -0.26185222 80.23551665 -5.90234375 84.4609375 C-6.63195312 85.02425781 -7.3615625 85.58757812 -8.11328125 86.16796875 C-9.584836 87.15853829 -11.064067 88.13780035 -12.55078125 89.10546875 C-14.85593271 90.63035417 -17.12012679 92.17304886 -19.33984375 93.8203125 C-24.44748691 97.5869858 -29.714195 100.67873423 -35.36328125 103.54296875 C-36.03689697 103.8889209 -36.7105127 104.23487305 -37.40454102 104.59130859 C-41.30569208 106.51800543 -44.73164338 107.69170376 -49.11328125 108.16796875 C-48.11282246 102.91556011 -46.01761754 100.75220891 -41.8203125 97.82421875 C-36.08001907 94.31212003 -30.09821432 91.2383641 -24.11328125 88.16796875 C-25.52480469 88.22017578 -25.52480469 88.22017578 -26.96484375 88.2734375 C-28.21007812 88.30050781 -29.4553125 88.32757813 -30.73828125 88.35546875 C-32.58292969 88.40767578 -32.58292969 88.40767578 -34.46484375 88.4609375 C-38.37735789 88.14676345 -40.75398343 87.13703408 -44.11328125 85.16796875 C-41.24075017 83.59564891 -38.66591974 82.73981431 -35.453125 82.1328125 C-34.57720703 81.96330078 -33.70128906 81.79378906 -32.79882812 81.61914062 C-31.89197266 81.44962891 -30.98511719 81.28011719 -30.05078125 81.10546875 C-28.24707678 80.76208835 -26.44367667 80.41710431 -24.640625 80.0703125 C-23.44554321 79.84589478 -23.44554321 79.84589478 -22.22631836 79.61694336 C-19.93930307 79.17228128 -19.93930307 79.17228128 -17.11328125 78.16796875 C-17.90992188 78.07 -18.7065625 77.97203125 -19.52734375 77.87109375 C-27.11621357 76.80015835 -31.65582993 75.73695076 -37.05078125 70.16796875 C-38.11328125 68.16796875 -38.11328125 68.16796875 -37.80078125 65.91796875 C-37.57390625 65.34046875 -37.34703125 64.76296875 -37.11328125 64.16796875 C-33.43496946 64.63954718 -30.14612514 65.47068638 -26.67578125 66.73046875 C-21.66191128 68.39897789 -17.75747305 69.38836497 -12.7265625 67.06640625 C-9.82543565 65.48243334 -6.97099607 63.82892483 -4.11328125 62.16796875 C5.08998363 57.04784251 13.49288792 53.8936367 23.88671875 52.16796875 C24.72460938 51.99136719 25.5625 51.81476563 26.42578125 51.6328125 C45.49347328 48.03113734 66.29896562 48.91082645 84.88671875 54.16796875 C70.61517194 43.04333942 55.32153315 36.38721829 36.88671875 38.16796875 C19.09841002 40.74910182 2.57564011 47.71206337 -13.61669922 55.23510742 C-14.40834473 55.60224854 -15.19999023 55.96938965 -16.015625 56.34765625 C-16.71163818 56.67491699 -17.40765137 57.00217773 -18.12475586 57.33935547 C-22.4860592 59.15669906 -26.38423574 59.49983159 -31.11328125 59.16796875 C-34.23998078 57.84780673 -35.68885984 57.00787639 -37.2265625 53.96484375 C-40.25802385 44.40305377 -38.17929186 34.07507325 -34.11328125 25.16796875 C-27.28880455 12.09483057 -15.23645905 0.08771221 0 0 Z " fill="#010101" transform="translate(353.11328125,320.83203125)"/>
<path d="M0 0 C7.96547108 7.56632983 12.8114621 16.51816818 13.09765625 27.62109375 C13.13388393 31.81870332 13.04938102 36.00766673 12.91796875 40.203125 C10.378324 39.074394 8.73935409 38.03146524 6.7109375 36.08203125 C2.89446088 33.51458334 -0.35936418 33.89607832 -4.76953125 34.140625 C-13.17078932 34.37892498 -21.30138861 33.82891927 -29.64453125 32.828125 C-30.71340576 32.70171631 -31.78228027 32.57530762 -32.88354492 32.44506836 C-37.95451376 31.81459801 -42.97672272 31.0679671 -48 30.12890625 C-65.5126775 26.85680486 -79.64275276 33.50745261 -94.70703125 41.640625 C-101.82973628 45.44263515 -108.96075733 49.22320018 -116.23046875 52.73828125 C-117.26091309 53.23851807 -118.29135742 53.73875488 -119.35302734 54.25415039 C-122.19455303 55.24225294 -123.33513029 55.30245988 -126.08203125 54.203125 C-119.462661 46.23919517 -112.7341374 39.85439269 -103.671875 34.7578125 C-100.33103528 32.75230088 -97.2336513 30.49451094 -94.08203125 28.203125 C-106.88322344 27.83107743 -118.80783321 28.11172565 -131.08203125 32.203125 C-135.45707598 32.68924108 -137.4080326 32.66649907 -141.08203125 30.140625 C-143.08203125 27.203125 -143.08203125 27.203125 -143.26953125 23.953125 C-139.50907665 12.07800521 -128.87966122 2.79263438 -118.4855957 -3.58276367 C-109.38986124 -8.17728754 -96.75066799 -7.79252343 -86.70703125 -8.796875 C-85.85253387 -8.88336304 -84.9980365 -8.96985107 -84.11764526 -9.05895996 C-18.20127246 -15.70841525 -18.20127246 -15.70841525 0 0 Z " fill="#010101" transform="translate(674.08203125,333.796875)"/>
<path d="M0 0 C9.04487844 0.53205167 14.16991499 5.65357005 20 12 C22.56103938 15.17631848 24.9709609 18.45392355 27.375 21.75 C32.73337001 29.00256875 38.1727979 36.11474224 44 43 C41.59216833 44.20391583 40.20146485 44.07218196 37.51953125 43.9921875 C11.65898897 43.44186562 -12.43396203 50.31046769 -35 63 C-35.84755859 63.47550293 -36.69511719 63.95100586 -37.56835938 64.44091797 C-42.09130658 66.98967714 -46.59809967 69.5646365 -51.08984375 72.16796875 C-51.91121826 72.63968506 -52.73259277 73.11140137 -53.57885742 73.59741211 C-55.17461907 74.52185001 -56.76111895 75.46249127 -58.3371582 76.42016602 C-63.32871109 79.37583894 -67.57500754 80.85094074 -73.3125 81.5625 C-79.74694124 82.50220259 -85.51671146 83.98767668 -91.58203125 86.42578125 C-94.64383302 87.15289734 -95.3572172 86.62405647 -98 85 C-99.06734375 84.59910156 -100.1346875 84.19820312 -101.234375 83.78515625 C-105.43179841 81.72841878 -108.6418263 80.14605146 -111 76 C-112.72147564 67.17199188 -111.78625069 57.90184656 -111 49 C-100.30666049 44.93785027 -89.58527629 40.98141087 -78.75 37.3125 C-78.03654419 37.07054901 -77.32308838 36.82859802 -76.5880127 36.57931519 C-65.76695942 32.94126488 -55.35215508 30.58399628 -43.99853516 29.27587891 C-27.56150179 27.00690166 -16.93728421 17.50138483 -6 6 C-4.33799531 4.32868436 -2.67256632 2.66074606 -1 1 C-0.67 0.67 -0.34 0.34 0 0 Z " fill="#FDFDFD" transform="translate(111,684)"/>
<path d="M0 0 C-0.62434565 5.30693802 -3.22472823 8.78091028 -6.5 12.875 C-8 14 -8 14 -12 14 C-12.20625 14.556875 -12.4125 15.11375 -12.625 15.6875 C-16.76292442 22.64673653 -25.99111262 27.35946141 -33 31 C-36.2890625 31.82421875 -36.2890625 31.82421875 -39 32 C-40.875 30.5625 -40.875 30.5625 -42 29 C-42.556875 30.6396875 -42.556875 30.6396875 -43.125 32.3125 C-44.40431885 35.26569398 -44.98803457 35.99156981 -47.75 37.9375 C-51.44736032 39.14625241 -54.13395755 39.42956027 -58 39 C-60.4375 37.5 -60.4375 37.5 -62 36 C-62.598125 36.94875 -63.19625 37.8975 -63.8125 38.875 C-66.95455841 42.60674444 -70.17551853 43.1299204 -74.87890625 43.76171875 C-88.08017358 44.7695752 -88.08017358 44.7695752 -92.9387207 43.48901367 C-95.63571647 42.84918393 -98.23575533 42.99210421 -100.99169922 43.06518555 C-116.33417433 43.47155381 -116.33417433 43.47155381 -121.6953125 38.39453125 C-122.12585938 37.93433594 -122.55640625 37.47414063 -123 37 C-123.33 37.33 -123.66 37.66 -124 38 C-129.9738053 38.42670038 -135.69762942 38.04746773 -141 35 C-142.5625 31.8125 -142.5625 31.8125 -143 29 C-144.19625 29.103125 -145.3925 29.20625 -146.625 29.3125 C-150.17421997 29.29362117 -151.13337837 28.92096097 -154.375 27 C-158.95628561 21.76424501 -159.45183716 15.73201207 -159.2421875 8.98828125 C-159 7 -159 7 -157.9375 4.4375 C-156 3 -156 3 -152.5625 2.4375 C-149 3 -149 3 -146.6875 5.1875 C-143.56867953 10.38553412 -142.7599428 13.8785413 -143 20 C-142.34 20 -141.68 20 -141 20 C-141.04640625 19.39671875 -141.0928125 18.7934375 -141.140625 18.171875 C-141.43248438 11.70927439 -141.43248438 11.70927439 -139.4375 8.4375 C-136.02983728 6.42785276 -133.89581737 6.45321861 -130 7 C-125.88342562 9.1518457 -124.62643814 11.50011293 -123.1875 15.75 C-122.77529043 17.16198858 -122.37389236 18.57738516 -122 20 C-121.814375 18.329375 -121.814375 18.329375 -121.625 16.625 C-121 13 -121 13 -119 11 C-113.58593894 10.34839619 -108.96750732 10.76462171 -104 13 C-101.44012083 13.46392632 -98.88012765 13.87426748 -96.3046875 14.2421875 C-93.37444333 15.20569152 -92.55570695 16.38138768 -91 19 C-90.505 20.485 -90.505 20.485 -90 22 C-89.566875 21.071875 -89.13375 20.14375 -88.6875 19.1875 C-86.00520397 15.14973764 -82.37119982 14.4886336 -77.82421875 13.46875 C-73.0840875 12.68200622 -68.98847521 12.05547428 -64.5 14.1875 C-63 16 -63 16 -62.75 18.6875 C-62.8325 19.450625 -62.915 20.21375 -63 21 C-62.34 21 -61.68 21 -61 21 C-60.9175 20.278125 -60.835 19.55625 -60.75 18.8125 C-59.51117218 14.16689566 -56.93611193 11.62407462 -53 9 C-49.5625 8.625 -49.5625 8.625 -46 9 C-43.5625 11 -43.5625 11 -42 13 C-41.64808594 12.50628906 -41.29617188 12.01257813 -40.93359375 11.50390625 C-38.22014505 7.98279919 -36.72706631 6.22564127 -32.375 4.875 C-29 5 -29 5 -26.625 6.25 C-25 8 -25 8 -24 11 C-23.5875 10.071875 -23.175 9.14375 -22.75 8.1875 C-21.05370022 5.09781112 -20.10163394 3.59781142 -17 2 C-14.9375 2.0625 -14.9375 2.0625 -13 3 C-11.25 5.0625 -11.25 5.0625 -10 7 C-9.21625 6.030625 -8.4325 5.06125 -7.625 4.0625 C-5.16960805 1.02556785 -4.0822027 0 0 0 Z " fill="#FBFBFB" transform="translate(595,580)"/>
<path d="M0 0 C0.87188965 0.0407666 1.7437793 0.0815332 2.64208984 0.12353516 C4.07875 0.18927734 4.07875 0.18927734 5.54443359 0.25634766 C7.0584375 0.33369141 7.0584375 0.33369141 8.60302734 0.41259766 C10.08222656 0.47833984 10.08222656 0.47833984 11.59130859 0.54541016 C15.51729503 0.7341091 19.35203468 0.94074764 23.24046326 1.54234314 C26.73837981 2.00584261 30.05249527 2.17074223 33.57739258 2.18286133 C34.84659042 2.18924118 36.11578827 2.19562103 37.42344666 2.20219421 C38.79450441 2.2037244 40.16556268 2.20483755 41.53662109 2.20556641 C42.96802299 2.20878761 44.39942457 2.2121523 45.83082581 2.21565247 C48.82903809 2.22162419 51.82722165 2.22349465 54.82543945 2.22290039 C58.62057663 2.22279949 62.41552367 2.23638523 66.21061611 2.2536726 C69.16993511 2.26493749 72.12921045 2.26681514 75.08854866 2.26629066 C76.48482982 2.26745168 77.88111284 2.27176425 79.27737236 2.27962303 C88.15163654 2.32485349 96.68012288 1.73064517 105.44593811 0.46699524 C108.66943046 0.07511391 111.7358268 -0.04109057 114.97802734 0.03759766 C114.35693235 7.08346219 110.72820723 10.14551006 105.60644531 14.67919922 C100.65733294 18.80766418 95.30962949 22.42685845 89.97802734 26.03759766 C90.43625203 29.50701312 90.86934417 32.71154814 91.97802734 36.03759766 C87.51411854 35.63178776 84.95197638 33.77552229 81.52880859 31.09619141 C80.01566147 29.84966812 80.01566147 29.84966812 77.97802734 30.03759766 C78.55552734 31.09720703 79.13302734 32.15681641 79.72802734 33.24853516 C80.47824523 34.63643824 81.22823335 36.02446553 81.97802734 37.41259766 C82.35958984 38.11126953 82.74115234 38.80994141 83.13427734 39.52978516 C85.97802734 44.81103516 85.97802734 44.81103516 85.97802734 47.03759766 C80.74185685 45.3969309 75.83378312 43.63486237 70.97802734 41.03759766 C70.19427734 40.64572266 69.41052734 40.25384766 68.60302734 39.85009766 C68.06677734 39.58197266 67.53052734 39.31384766 66.97802734 39.03759766 C67.47302734 40.05853516 67.47302734 40.05853516 67.97802734 41.10009766 C69.15110049 44.54600004 69.11983228 47.42157188 68.97802734 51.03759766 C65.56782836 50.45555056 63.97316509 49.3283811 61.54052734 46.91259766 C58.91818967 44.5295002 58.91818967 44.5295002 55.54052734 43.78759766 C51.63653097 45.69198613 48.34139885 48.30850961 44.97802734 51.03759766 C44.99865234 50.06822266 45.01927734 49.09884766 45.04052734 48.10009766 C45.33421233 45.1629387 45.33421233 45.1629387 43.97802734 44.03759766 C38.28594658 43.78029301 33.21446003 44.40018681 27.66552734 45.60009766 C20.38124641 47.17200401 20.38124641 47.17200401 16.97802734 46.03759766 C18.06090729 44.64141256 19.14435475 43.24566762 20.22802734 41.85009766 C20.83130859 41.07279297 21.43458984 40.29548828 22.05615234 39.49462891 C24.01202033 36.99413915 25.99061895 34.51306431 27.97802734 32.03759766 C26.78306641 32.57900391 26.78306641 32.57900391 25.56396484 33.13134766 C24.50435547 33.59541016 23.44474609 34.05947266 22.35302734 34.53759766 C21.30888672 35.00166016 20.26474609 35.46572266 19.18896484 35.94384766 C15.89678444 37.06527164 13.42687512 37.24473566 9.97802734 37.03759766 C11.3113483 33.0376348 13.47381004 32.19977429 16.97802734 30.03759766 C14.94904769 23.34196478 10.02833504 18.85409307 4.85302734 14.41259766 C-2.81844361 7.82865323 -2.81844361 7.82865323 -3.33447266 3.28759766 C-2.88531341 0.05365108 -2.88531341 0.05365108 0 0 Z " fill="#020202" transform="translate(444.02197265625,656.96240234375)"/>
<path d="M0 0 C4.4874209 3.17416572 8.9173531 6.54564709 12.48828125 10.75390625 C15.7889782 13.47463578 20.9699918 12.32218938 25 12 C27.58959094 11.56153091 30.13435683 11.02623216 32.6953125 10.4453125 C35.86290345 9.8332695 38.78426503 9.86018544 42 10 C38.83404728 14.02939437 35.09817442 15.35097834 30.4375 17.0703125 C28.20395443 17.92220969 26.11632641 18.89284776 24 20 C33.66303343 21.70426788 43.21735243 22.52279768 53 23 C48.1959847 27.96414914 48.1959847 27.96414914 43.7421875 28.09765625 C41.82792969 28.08025391 41.82792969 28.08025391 39.875 28.0625 C38.59367188 28.05347656 37.31234375 28.04445313 35.9921875 28.03515625 C34.51105469 28.01775391 34.51105469 28.01775391 33 28 C36.77844413 32.62859406 40.6257421 36.5565619 45.265625 40.32421875 C47.0968652 42.09359273 48.00626435 43.67283334 49 46 C45.95658602 44.35092546 42.91929699 42.69091944 39.88378906 41.02734375 C37.8093884 39.896048 35.72875292 38.77662903 33.6484375 37.65625 C24.18532862 32.52271392 15.13432708 27.29464732 6.9453125 20.2265625 C4.83364465 18.57775714 4.83364465 18.57775714 1.25 19.8125 C0.48300781 20.02261719 -0.28398438 20.23273438 -1.07421875 20.44921875 C-7.27655087 21.61681398 -13.71248859 21.13886528 -20 21 C-16.25 17.125 -16.25 17.125 -14 16 C-14.15481795 13.29068581 -14.48172081 11.53415961 -16.40234375 9.5546875 C-17.89771708 8.32320358 -19.4462924 7.1570163 -21 6 C-21.0825 6.804375 -21.165 7.60875 -21.25 8.4375 C-22.25625919 13.21723117 -23.58574344 19.12938959 -27.61328125 22.25 C-31.17401087 23.36891995 -34.68136939 23.29319585 -38.375 23.25 C-39.18590088 23.24613281 -39.99680176 23.24226563 -40.83227539 23.23828125 C-45.46532069 23.17250598 -49.86561847 22.80918257 -54.4375 22 C-62.89267003 20.56573035 -71.38278158 20.87301218 -79.93530273 20.98632812 C-81.64568726 21.00663086 -81.64568726 21.00663086 -83.390625 21.02734375 C-84.9379834 21.05429321 -84.9379834 21.05429321 -86.51660156 21.08178711 C-89 21 -89 21 -91 20 C-86.62852567 9.23184855 -70.67137105 -0.64368341 -60.5625 -4.9375 C-42.67361241 -11.96442655 -16.8310701 -9.00010039 0 0 Z " fill="#040404" transform="translate(649,380)"/>
<path d="M0 0 C0.66 0 1.32 0 2 0 C24.92132716 35.38446012 31.54036269 84.05818116 42.1875 124.375 C42.40299248 125.19078396 42.61848495 126.00656792 42.84050751 126.8470726 C44.09163201 131.58461731 45.34054191 136.32273732 46.58633995 141.06168556 C46.97072512 142.52338184 47.35555526 143.98496119 47.74085426 145.44641685 C48.27297089 147.46568282 48.80314944 149.48544757 49.33276367 151.50537109 C49.63188156 152.64364349 49.93099945 153.78191589 50.23918152 154.9546814 C53.37522398 167.50727928 53.69810369 179.61484554 47 191 C44.56138737 194.56692593 41.904153 197.80380927 39 201 C38.35933594 201.71027344 37.71867188 202.42054688 37.05859375 203.15234375 C32.35602731 208.10191368 27.07719597 212.81567884 21 216 C20.01 215.67 19.02 215.34 18 215 C18.17762977 209.67110675 20.02896898 207.48708964 23.71166992 204.00195312 C24.34306885 203.42380859 24.97446777 202.84566406 25.625 202.25 C35.65996033 192.6578518 43.94658594 182.73721744 44.3125 168.3125 C44.2632499 161.663736 42.80197746 155.51803836 38.59375 150.234375 C35.95902973 148.19375832 33.19801546 148.81898026 30 149 C27.54027681 143.8101464 26.29997299 139.12380675 25.4921875 133.45703125 C25.23071378 131.74889206 24.96889776 130.04080524 24.70678711 128.33276367 C24.50495316 126.98630264 24.50495316 126.98630264 24.29904175 125.61264038 C18.23100507 85.5426364 11.63815833 45.45400787 -7 9 C-6.57847656 8.51789062 -6.15695312 8.03578125 -5.72265625 7.5390625 C-5.17480469 6.90742187 -4.62695312 6.27578125 -4.0625 5.625 C-3.51722656 4.99851562 -2.97195313 4.37203125 -2.41015625 3.7265625 C-0.93041376 2.04367666 -0.93041376 2.04367666 0 0 Z " fill="#FAFAFA" transform="translate(691,630)"/>
<path d="M0 0 C0.33 0 0.66 0 1 0 C1.01458252 0.60545654 1.02916504 1.21091309 1.04418945 1.8347168 C1.71304997 27.14506058 4.07526171 52.15337803 9 77 C9.20995605 78.07540039 9.41991211 79.15080078 9.63623047 80.25878906 C17.08984458 118.00861101 28.93910961 155.06666066 42.78637695 190.95068359 C43.22425537 192.10391113 43.66213379 193.25713867 44.11328125 194.4453125 C44.50298096 195.45094238 44.89268066 196.45657227 45.29418945 197.49267578 C46 200 46 200 45 203 C12.16398335 159.72604428 -17.10935107 87.13954914 -10.05932617 32.08544922 C-8.39926739 20.9757203 -4.94516694 10.07348822 0 0 Z " fill="#FAFAFA" transform="translate(294,610)"/>
<path d="M0 0 C0.89203125 0.01804687 1.7840625 0.03609375 2.703125 0.0546875 C3.71632812 0.08949219 3.71632812 0.08949219 4.75 0.125 C3.44638314 3.49168025 1.97435598 6.70313361 0.375 9.9375 C-3.00192072 17.27081304 -5.95778559 26.32941426 -6.3671875 34.44921875 C-7.25 36.125 -7.25 36.125 -10.6796875 37.3984375 C-12.15839053 37.77779063 -13.64044784 38.14422429 -15.125 38.5 C-32.3819423 43.12181541 -42.11953989 51.96955196 -51.25 67.125 C-52.5028742 70.36759632 -52.5028742 70.36759632 -53.25 73.125 C-56.91240635 69.690702 -59.57006532 66.3147652 -62.125 62 C-64.68453414 57.70925003 -67.31087178 53.4835728 -70.0625 49.3125 C-74.15232295 42.87896573 -77.17618186 36.99754582 -76.25 29.125 C-74.87527165 27.06290747 -73.9409878 26.36879861 -71.62597656 25.55200195 C-68.24181277 24.94381222 -64.90614787 25.08378638 -61.484375 25.16796875 C-59.93881507 25.19036772 -58.39324121 25.21182195 -56.84765625 25.23242188 C-54.42718379 25.26939247 -52.00743198 25.31231725 -49.58740234 25.37182617 C-39.25160863 25.61379067 -31.84444759 25.77232447 -23.52734375 18.86328125 C-18.93610511 14.10341615 -14.65573328 9.33407196 -10.8203125 3.9375 C-7.65459448 0.28353691 -4.69530263 -0.1235606 0 0 Z " fill="#FCFCFC" transform="translate(251.25,639.875)"/>
<path d="M0 0 C5.50547801 8.25821702 2.97863144 26.11962731 1.34765625 35.6953125 C-3.55577623 55.51949017 -15.58410439 72.28135996 -33.0625 82.875 C-46.177495 90.15736226 -61.35922803 92.29883707 -76.0625 88.9375 C-81.35659177 87.24824018 -85.40954881 84.22406022 -89 80 C-89.33 79.01 -89.66 78.02 -90 77 C-89.44957031 77.144375 -88.89914062 77.28875 -88.33203125 77.4375 C-67.52849899 82.08200953 -48.87700264 79.00221039 -30.94140625 67.703125 C-15.81370648 56.38355288 -10.71654155 33.84339844 -5.6875 16.625 C-5.02738163 14.38141638 -4.3652137 12.13848121 -3.69941711 9.89657593 C-3.29068402 8.51875645 -2.88541481 7.13990343 -2.48405457 5.75991821 C-1.11148685 1.11148685 -1.11148685 1.11148685 0 0 Z " fill="#FAFAFA" transform="translate(423,110)"/>
<path d="M0 0 C4.54644823 0.06682975 7.31695286 1.81852432 10.7109375 4.7109375 C11.54492065 5.38552002 11.54492065 5.38552002 12.39575195 6.07373047 C16.85626653 9.75040767 20.91119306 13.78557093 24.91796875 17.94921875 C28.09651043 21.08668073 31.54154783 23.77044298 35.109375 26.44921875 C39.07938289 29.81327807 41.59585615 33.15666499 43.0859375 38.1484375 C43.32828125 38.93863281 43.570625 39.72882812 43.8203125 40.54296875 C43.99046875 41.13464844 44.160625 41.72632813 44.3359375 42.3359375 C37.66927083 40.66927083 31.00260417 39.00260417 24.3359375 37.3359375 C24.8309375 40.8009375 24.8309375 40.8009375 25.3359375 44.3359375 C24.40394531 43.830625 23.47195313 43.3253125 22.51171875 42.8046875 C14.75405477 38.78769131 8.89960058 36.53896558 -0.0546875 37.28515625 C-2.6640625 37.3359375 -2.6640625 37.3359375 -5.6640625 35.3359375 C-8.07356582 34.95317219 -8.07356582 34.95317219 -10.6640625 34.8359375 C-14.33093372 34.61767136 -15.49782503 34.44676248 -18.6640625 32.3359375 C-18.6640625 31.6759375 -18.6640625 31.0159375 -18.6640625 30.3359375 C-17.45051255 29.41104749 -16.19145543 28.54543872 -14.9140625 27.7109375 C-9.16196138 23.45275664 -7.2098784 19.56452126 -6.01953125 12.5234375 C-5.64455653 9.8284269 -5.344031 7.14124614 -5.05859375 4.43359375 C-4.54700852 0.41688991 -4.54700852 0.41688991 0 0 Z " fill="#FCFCFC" transform="translate(586.6640625,493.6640625)"/>
<path d="M0 0 C21.63276306 6.62666729 40.09192084 3.83866413 61.37109375 -2.421875 C63.4375 -2.9375 63.4375 -2.9375 66.4375 -2.9375 C66.4375 -2.2775 66.4375 -1.6175 66.4375 -0.9375 C64.51044292 0.59991701 62.60016565 1.99780933 60.5625 3.375 C59.97259277 3.77726807 59.38268555 4.17953613 58.77490234 4.59399414 C44.64241695 14.06722948 31.3209828 16.82227109 14.4375 15.0625 C10.49444075 14.27091323 6.66437141 13.21364543 2.8125 12.0625 C-8.83098783 8.59183524 -17.00397002 6.90169989 -28.27001953 12.80200195 C-35.09015085 16.69126909 -40.87243284 21.69451211 -46.5625 27.0625 C-47.31273437 27.75859375 -48.06296875 28.4546875 -48.8359375 29.171875 C-56.48093111 36.96795544 -61.75769395 47.88965014 -65.5625 58.0625 C-65.8925 58.0625 -66.2225 58.0625 -66.5625 58.0625 C-67.26581568 44.23062487 -63.47691049 33.50193036 -54.73828125 22.8359375 C-39.99416432 6.9041805 -21.68113853 -6.76278197 0 0 Z " fill="#040404" transform="translate(367.5625,415.9375)"/>
<path d="M0 0 C0 3 0 3 -1.9140625 5.015625 C-17.91924202 18.20721388 -38.04810357 25.94745191 -59 24 C-68.59147562 22.09966462 -86.29847118 17.35093813 -92 9 C-91.56567383 6.90380859 -91.56567383 6.90380859 -91 5 C-83.41736188 4.6342578 -76.67407113 5.6829036 -69.3125 7.4375 C-46.79510019 12.65405531 -23.62739046 14.10005421 -3 2 C-2.01 1.34 -1.02 0.68 0 0 Z " fill="#050505" transform="translate(656,409)"/>
<path d="M0 0 C5.875 0.875 5.875 0.875 7 2 C7.95388568 12.91495423 6.56932542 23.6949731 5.125 34.5 C5.03397003 35.18402893 4.94294006 35.86805786 4.84915161 36.57281494 C4.04063619 42.61763836 3.21163835 48.65889625 2.2890625 54.6875 C0.77257667 65.41279108 0.88737687 76.0719192 1.16113281 86.87695312 C1.32722399 97.31169711 0.81819164 106.70932239 -6.40234375 114.7578125 C-8.2449217 116.19042812 -9.74534396 116.49883657 -12 117 C-11.80664062 115.71351563 -11.61328125 114.42703125 -11.4140625 113.1015625 C-10.20810513 104.8030197 -9.04664936 96.54711464 -8.53125 88.171875 C-8.46083496 87.03927246 -8.39041992 85.90666992 -8.31787109 84.73974609 C-8.19270592 82.55616836 -8.08520336 80.37147943 -7.99853516 78.18603516 C-7.54433544 70.28544893 -5.32769406 64.13263068 -2 57 C2.10763937 47.43018666 0.45012282 37.6416461 -3.125 28.1328125 C-5.08506531 21.11507867 -3.76484651 14.88051648 -2 8 C-1.80921875 7.22527344 -1.6184375 6.45054687 -1.421875 5.65234375 C-0.95615457 3.76617601 -0.47925183 1.88277506 0 0 Z " fill="#F8F8F8" transform="translate(737,381)"/>
<path d="M0 0 C4.82500671 4.32410559 10.01754924 11.79148654 12 18 C10.6903224 21.84408075 8.28384173 23.70131079 5 26 C4.34 26 3.68 26 3 26 C-0.28965949 32.50588908 -3.19290104 38.92219574 -5 46 C-7.76661775 42.75910492 -8.92091935 39.69232756 -10.125 35.625 C-10.45757812 34.52414062 -10.79015625 33.42328125 -11.1328125 32.2890625 C-13.81946721 22.09913788 -14.42699298 13.4560679 -9.38671875 3.99609375 C-6.82065205 0.30240337 -4.32247458 -0.63369612 0 0 Z " fill="#FAFAFA" transform="translate(374,801)"/>
<path d="M0 0 C5.24147096 1.24140102 8.75792689 3.89144403 13.01171875 7.015625 C15.85826153 8.90587824 18.69221352 10.39515391 21.75244141 11.89135742 C28.94598078 15.43361728 33.41617572 18.67808086 37 26 C37.97546576 27.7936843 38.95480206 29.58526774 39.9375 31.375 C40.42734375 32.2928125 40.9171875 33.210625 41.421875 34.15625 C43.57936069 38.04399649 45.96627531 41.76414818 48.38671875 45.4921875 C53 52.66343826 53 52.66343826 53 55 C32.56265715 47.75501603 9.45941534 18.91883069 0 0 Z " fill="#F8F8F8" transform="translate(406,898)"/>
<path d="M0 0 C7.52378701 2.0653533 12.40970963 11.44768551 16.1875 17.875 C17.42860506 21.59831517 17.71528231 25.00710964 17.1875 28.875 C15.19362184 32.62349095 13.82082419 33.62406023 9.875 35.1875 C5.6920669 34.83301414 5.25179431 34.41388673 2.5625 31.4375 C-3.45830467 23.7080886 -8.03454471 16.99559566 -6.8125 6.875 C-5.02497846 2.95620277 -4.14876964 1.29072833 0 0 Z " fill="#FBFBFB" transform="translate(405.8125,854.125)"/>
<path d="M0 0 C5.57196913 1.88185373 9.86027659 6.34513095 13.6953125 10.63671875 C15.49306186 14.64079686 15.4750307 17.55574179 14.0703125 21.69921875 C12.17603204 24.08234578 10.77020071 25.34927465 8.0703125 26.69921875 C3.06863726 26.93351311 -0.87931509 26.20893039 -4.8046875 23.01171875 C-8.81490964 19.09454121 -11.02759366 15.29307857 -11.3671875 9.63671875 C-10.88266931 5.27605506 -10.03497663 3.71317584 -6.9296875 0.69921875 C-4.47778681 -0.5267316 -2.67655055 -0.43115982 0 0 Z " fill="#FAFAFA" transform="translate(484.9296875,976.30078125)"/>
<path d="M0 0 C1.42989258 0.22864746 1.42989258 0.22864746 2.88867188 0.46191406 C9.60836087 1.55692832 16.30844316 2.74506056 23 4 C20.65649804 8.68700391 12.2084321 10.69120724 7.41699219 12.31445312 C-6.72653105 16.32607062 -19.94847375 11.40970348 -33 6 C-33 5.34 -33 4.68 -33 4 C-21.60522185 0.22784549 -12.05038574 -1.95313647 0 0 Z " fill="#F8F8F8" transform="translate(509,567)"/>
<path d="M0 0 C11.45141522 6.04608436 21.89984992 15.13178782 29 26 C24.88410145 26 24.08694022 24.41847035 21.1875 21.5625 C10.56982491 11.5480611 -2.04854655 3.07681801 -17.125 2.625 C-22.4976226 2.85475031 -27.74989243 3.88210637 -33 5 C-23.3046587 -5.90725896 -12.76565856 -5.94904477 0 0 Z " fill="#070808" transform="translate(670,425)"/>
<path d="M0 0 C0.33 0 0.66 0 1 0 C0.95582332 4.76955757 0.88596836 9.53779423 0.79248047 14.30664062 C0.76428653 15.92827837 0.74306406 17.55005313 0.72900391 19.171875 C0.70755128 21.50592105 0.66089425 23.83832261 0.609375 26.171875 C0.60814636 26.89493835 0.60691772 27.61800171 0.60565186 28.36297607 C0.50242155 31.92500169 0.25260628 33.69147417 -2.03808594 36.48925781 C-2.68551758 36.98780273 -3.33294922 37.48634766 -4 38 C-7.94028889 24.7718873 -8.69212699 14.45141204 -2 2 C-1.34 1.34 -0.68 0.68 0 0 Z " fill="#F9F9F9" transform="translate(279,202)"/>
<path d="M0 0 C6.62798976 3.06018783 11.50908121 8.46878529 16.54467773 13.63183594 C25.15828209 22.44385145 34.16640995 30.01301602 45 36 C42.125237 37.21190989 40.97333555 36.99079114 37.96875 35.953125 C23.13786529 28.67129422 13.78565899 18.03681544 4 5 C2.67323647 3.32809866 1.34240839 1.65936593 0 0 Z " fill="#090909" transform="translate(405,608)"/>
<path d="M0 0 C2.125 0.9375 2.125 0.9375 4 2 C4.33 1.67 4.66 1.34 5 1 C6.99958364 0.95919217 9.00045254 0.95745644 11 1 C13.5915262 6.93891422 14.40368295 11.54107286 14 18 C12.21484375 18.68359375 12.21484375 18.68359375 10 19 C4.83205398 15.58938686 0.62022917 9.55440286 -2 4 C-2 3.01 -2 2.02 -2 1 C-1.34 0.67 -0.68 0.34 0 0 Z " fill="#FAFAFA" transform="translate(419,580)"/>
<path d="M0 0 C0.33 0 0.66 0 1 0 C1 1.98 1 3.96 1 6 C2.32 6.33 3.64 6.66 5 7 C3.38233386 24.73017572 1.60658572 42.38243834 -1 60 C-1.33 60 -1.66 60 -2 60 C-2.36631437 39.92315481 -1.30540078 20.02366747 0 0 Z " fill="#EDEDEC" transform="translate(820,910)"/>
<path d="M0 0 C0 4.25250331 -1.8447795 5.27812884 -4.8125 8.25 C-12.72647984 16.03165193 -21.9752397 22.56990697 -33 25 C-34.34309533 24.70848016 -35.6794234 24.38074446 -37 24 C-36.17145508 23.54898926 -36.17145508 23.54898926 -35.32617188 23.08886719 C-22.80500968 16.22660638 -11.16517824 8.90687486 0 0 Z " fill="#0B0A0A" transform="translate(581,625)"/>
<path d="M0 0 C0.94616328 3.42984189 1 6.44175575 1 10 C1.33 11.32 1.66 12.64 2 14 C-1.63 13.34 -5.26 12.68 -9 12 C-9 7 -9 7 -7.03125 4.98046875 C-6.1959375 4.38878906 -5.360625 3.79710937 -4.5 3.1875 C-3.6646875 2.58292969 -2.829375 1.97835938 -1.96875 1.35546875 C-1.3190625 0.90816406 -0.669375 0.46085937 0 0 Z " fill="#F4F4F4" transform="translate(587,384)"/>
<path d="M0 0 C4.20969919 1.50346399 5.91860139 4.14555814 8 8 C7.875 10.3125 7.875 10.3125 7 12 C3.78548731 13.60725635 0.56387464 13.05748185 -3 13 C-2.690625 12.154375 -2.38125 11.30875 -2.0625 10.4375 C-0.98461179 6.9502146 -0.43418696 3.61822465 0 0 Z " fill="#F4F5F4" transform="translate(420,384)"/>
<path d="M0 0 C0 0.66 0 1.32 0 2 C-1.24735567 2.6509259 -2.49801832 3.29551669 -3.75 3.9375 C-4.44609375 4.29714844 -5.1421875 4.65679687 -5.859375 5.02734375 C-9.56004931 6.70885452 -12.70053513 7.12205095 -16.75 7.0625 C-17.54921875 7.05347656 -18.3484375 7.04445313 -19.171875 7.03515625 C-19.77515625 7.02355469 -20.3784375 7.01195312 -21 7 C-20.35546875 5.109375 -20.35546875 5.109375 -19 3 C-12.98064765 0.55206915 -6.46695911 -0.44092903 0 0 Z " fill="#101010" transform="translate(683,378)"/>
<path d="M0 0 C1.90389849 2.85584773 2.69462177 4.9311762 3.625 8.1875 C3.88539063 9.08855469 4.14578125 9.98960937 4.4140625 10.91796875 C4.60742188 11.60503906 4.80078125 12.29210937 5 13 C0.00088076 12.52389341 -2.97832683 10.96837781 -7 8 C-6.875 6.25 -6.875 6.25 -6 4 C-2.9375 1.75 -2.9375 1.75 0 0 Z " fill="#F6F6F6" transform="translate(378,386)"/>
<path d="M0 0 C1.65 0.33 3.3 0.66 5 1 C5.625 3.375 5.625 3.375 6 6 C5.34 6.66 4.68 7.32 4 8 C1.375 7.625 1.375 7.625 -1 7 C-1.625 5.1875 -1.625 5.1875 -2 3 C-1.34 2.01 -0.68 1.02 0 0 Z " fill="#F3F3F3" transform="translate(609,382)"/>
<path d="M0 0 C0.33 0 0.66 0 1 0 C1 1.98 1 3.96 1 6 C2.98 6.495 2.98 6.495 5 7 C4.67 11.62 4.34 16.24 4 21 C3.67 21 3.34 21 3 21 C2.814375 19.824375 2.814375 19.824375 2.625 18.625 C2.20882007 15.85942178 2.20882007 15.85942178 0 14 C-0.1953125 10.7421875 -0.1953125 10.7421875 -0.125 6.875 C-0.10695313 5.59367188 -0.08890625 4.31234375 -0.0703125 2.9921875 C-0.04710937 2.00476563 -0.02390625 1.01734375 0 0 Z " fill="#E4E4E4" transform="translate(820,910)"/>
<path d="M0 0 C2.25039617 3.37559426 2.17616009 3.97975643 1.6875 7.8125 C1.52507813 9.13314453 1.52507813 9.13314453 1.359375 10.48046875 C0.95296785 13.3297363 0.52143796 16.1693368 0 19 C-1.32 19 -2.64 19 -4 19 C-3.69255859 18.19949219 -3.69255859 18.19949219 -3.37890625 17.3828125 C-1.282843 11.58604428 -0.37189499 6.14267934 0 0 Z " fill="#E2E2E2" transform="translate(738,423)"/>
<path d="M0 0 C1.98 0.495 1.98 0.495 4 1 C4 2.32 4 3.64 4 5 C2.35 4.67 0.7 4.34 -1 4 C-0.67 2.68 -0.34 1.36 0 0 Z " fill="#F2F2F3" transform="translate(404,383)"/>
<path d="M0 0 C4.875 3.625 4.875 3.625 6 7 C4.68 7.33 3.36 7.66 2 8 C0.74335022 5.09399739 0 3.20395416 0 0 Z " fill="#EDEDEC" transform="translate(340,899)"/>
<path d="M0 0 C1.8871875 0.0309375 1.8871875 0.0309375 3.8125 0.0625 C0.86066899 3.01433101 -2.14261947 3.14913988 -6.1875 4.0625 C-6.5175 3.0725 -6.8475 2.0825 -7.1875 1.0625 C-4.43671116 0.14557039 -2.82801087 -0.04636083 0 0 Z " fill="#F0F0F0" transform="translate(334.1875,397.9375)"/>
<path d="M0 0 C3 2 3 2 3.6875 4.125 C3.790625 4.74375 3.89375 5.3625 4 6 C3.01 6 2.02 6 1 6 C0.34 7.32 -0.32 8.64 -1 10 C-1.125 3.375 -1.125 3.375 0 0 Z " fill="#131314" transform="translate(686,526)"/>
<path d="M0 0 C0.66 0.33 1.32 0.66 2 1 C1.34 3.64 0.68 6.28 0 9 C-2 6 -2 6 -1.6875 3.375 C-1 1 -1 1 0 0 Z " fill="#E4E4E3" transform="translate(645,629)"/>
</svg>
